# Exported from Webots PROTO
v 0.004259 -0.024710 -0.002104
v -0.012258 0.021720 -0.002009
v 0.012262 0.021720 -0.002029
v -0.012258 -0.021730 -0.002085
v 0.018782 -0.016130 -0.002101
v -0.012254 0.021710 0.003050
v -0.024514 -0.000015 0.003022
v 0.024526 -0.000015 0.002982
v -0.004255 -0.024710 -0.002098
v 0.023042 0.008573 -0.002060
v -0.023038 0.008573 -0.002024
v -0.023034 -0.008593 0.003005
v 0.023046 0.008564 0.002999
v 0.018786 -0.016140 0.002959
v -0.018778 -0.016130 -0.002071
v 0.004259 0.024700 -0.002017
v 0.004263 -0.024720 0.002956
v 0.012266 0.021710 0.003030
v -0.023034 0.008564 0.003035
v 0.024522 0.000000 -0.002077
v -0.018774 -0.016140 0.002989
v -0.018774 0.016110 0.003045
v 0.018786 0.016110 0.003015
v 0.023046 -0.008593 0.002969
v -0.024518 0.000000 -0.002037
v -0.004251 -0.024720 0.002962
v -0.012254 -0.021740 0.002974
v 0.012262 -0.021730 -0.002105
v -0.023038 -0.008584 -0.002054
v -0.004251 0.024690 0.003048
v 0.012266 -0.021740 0.002954
v 0.004263 0.024690 0.003042
v -0.018778 0.016120 -0.002014
v -0.004255 0.024700 -0.002011
v 0.018782 0.016120 -0.002044
v 0.023042 -0.008584 -0.002090
v -0.031214 0.011620 0.003047
v -0.025444 -0.021860 0.002984
v -0.005767 0.033470 -0.001994
v 0.025456 0.021840 0.003020
v 0.025456 -0.021860 0.002944
v -0.025448 0.021850 -0.001999
v 0.031226 -0.011630 0.002957
v -0.031218 -0.011630 -0.002053
v 0.016612 -0.029440 -0.002122
v -0.016604 -0.029450 0.002963
v 0.005775 -0.033480 0.002938
v -0.005767 -0.033470 -0.002111
v 0.005775 0.033460 0.003056
v -0.016604 0.029430 0.003066
v 0.031222 0.011630 -0.002062
v -0.033218 0.000000 -0.002031
v 0.016612 0.029440 -0.002019
v 0.033226 0.000000 0.002976
v 0.025452 -0.021850 -0.002116
v 0.031226 0.011620 0.002997
v -0.016608 0.029440 -0.001993
v -0.031218 0.011630 -0.002012
v -0.005763 0.033460 0.003066
v 0.005771 -0.033470 -0.002121
v -0.025448 -0.021850 -0.002076
v 0.016616 -0.029450 0.002937
v -0.016608 -0.029440 -0.002096
v -0.031214 -0.011630 0.003007
v 0.005771 0.033470 -0.002004
v -0.005763 -0.033480 0.002948
v 0.016616 0.029430 0.003040
v -0.025444 0.021840 0.003060
v 0.031222 -0.011630 -0.002103
v 0.025452 0.021850 -0.002039
v 0.033222 0.000000 -0.002083
v -0.033214 0.000000 0.003028
v 0.002910 0.016850 0.002087
v -0.015720 -0.005855 -0.002998
v 0.016730 0.000000 -0.003013
v -0.012816 0.011000 0.002088
v 0.008371 -0.014840 0.002026
v -0.008367 -0.014830 -0.003019
v 0.008367 0.014830 -0.002981
v -0.008367 0.014830 -0.002967
v 0.008367 -0.014830 -0.003033
v -0.012816 -0.011010 0.002050
v 0.015724 -0.005865 0.002036
v 0.012824 0.011000 0.002068
v -0.016726 0.000000 0.002072
v -0.015720 0.005855 -0.002977
v -0.002902 0.016850 0.002091
v 0.015724 0.005846 0.002056
v -0.002902 -0.016870 0.002032
v 0.002906 0.016860 -0.002973
v 0.012820 -0.011000 -0.003029
v 0.002910 -0.016870 0.002028
v -0.008363 -0.014840 0.002040
v 0.012820 0.011000 -0.002991
v -0.015716 -0.005865 0.002062
v -0.002906 -0.016860 -0.003027
v -0.012820 -0.011000 -0.003009
v 0.015720 0.005855 -0.003002
v -0.002906 0.016860 -0.002968
v -0.015716 0.005846 0.002082
v 0.002906 -0.016860 -0.003032
v -0.012820 0.011000 -0.002971
v 0.016734 0.000000 0.002046
v 0.012824 -0.011010 0.002030
v 0.008371 0.014820 0.002078
v 0.015720 -0.005855 -0.003023
v -0.016730 0.000000 -0.002987
v -0.008363 0.014820 0.002092
v -0.002923 0.026900 0.000002
v -0.002923 -0.026900 0.000002
v 0.002926 0.026900 0.003943
v 0.002923 -0.026900 -0.000002
v 0.002923 0.026900 -0.000002
v -0.002920 -0.026900 0.003947
v -0.026310 -0.002778 0.000021
v 0.026260 -0.003203 -0.000021
v -0.026257 0.003203 0.003966
v 0.026310 0.002778 -0.000021
v -0.026260 0.003203 0.000021
v 0.026263 -0.003203 0.003924
f 49 59 18
f 39 65 3
f 39 3 16
f 50 30 32
f 69 55 20
f 23 35 10
f 53 10 35
f 22 33 2
f 58 2 33
f 61 25 29
f 71 69 20
f 13 10 8
f 5 36 55
f 55 1 28
f 15 21 27
f 48 63 15
f 6 2 30
f 57 16 34
f 31 28 1
f 62 41 17
f 62 17 26
f 17 1 9
f 35 23 18
f 3 18 32
f 52 58 33
f 33 22 19
f 44 52 11
f 20 8 10
f 70 20 10
f 63 61 29
f 21 15 12
f 2 6 22
f 37 22 6
f 49 18 23
f 10 13 23
f 14 31 41
f 64 7 19
f 64 38 7
f 7 25 19
f 25 7 12
f 45 60 9
f 60 4 9
f 66 27 21
f 66 47 27
f 4 27 9
f 27 4 15
f 28 31 14
f 5 55 28
f 63 29 15
f 30 34 16
f 1 17 31
f 41 31 17
f 59 32 18
f 52 33 11
f 34 30 2
f 42 34 2
f 18 3 35
f 65 35 3
f 8 20 36
f 36 20 55
f 72 19 22
f 72 64 19
f 38 12 7
f 38 46 12
f 68 6 30
f 68 37 6
f 56 13 8
f 67 23 13
f 8 24 41
f 24 14 41
f 42 57 34
f 43 8 41
f 43 56 8
f 61 44 25
f 44 11 25
f 55 45 1
f 45 9 1
f 46 21 12
f 46 66 21
f 47 26 27
f 47 62 26
f 60 48 4
f 48 15 4
f 65 53 35
f 67 49 23
f 57 39 16
f 59 50 32
f 53 70 10
f 56 40 13
f 69 71 54
f 43 54 56
f 58 42 2
f 40 67 13
f 50 68 30
f 70 51 20
f 51 54 71
f 51 71 20
f 37 72 22
f 41 62 45
f 60 45 62
f 59 49 65
f 67 65 49
f 65 67 53
f 70 53 67
f 60 66 48
f 63 48 66
f 54 43 69
f 41 69 43
f 64 72 52
f 58 52 72
f 61 64 44
f 52 44 64
f 72 37 58
f 42 58 37
f 69 41 55
f 45 55 41
f 37 68 42
f 57 42 68
f 46 38 61
f 64 61 38
f 5 14 36
f 14 5 28
f 62 47 60
f 66 60 47
f 67 40 70
f 51 70 40
f 68 50 57
f 59 57 50
f 26 9 27
f 9 26 17
f 29 12 15
f 12 29 25
f 11 19 25
f 19 11 33
f 16 32 30
f 32 16 3
f 40 56 51
f 54 51 56
f 57 59 39
f 65 39 59
f 24 36 14
f 36 24 8
f 66 46 63
f 61 63 46
f 101 74 94
f 108 95 92
f 74 80 94
f 108 100 95
f 101 94 75
f 103 84 104
f 95 93 92
f 101 78 74
f 84 108 92
f 80 90 94
f 74 86 80
f 76 108 80
f 93 89 92
f 78 97 74
f 103 88 84
f 88 94 84
f 84 73 108
f 94 98 75
f 101 96 78
f 87 73 90
f 105 90 73
f 91 101 75
f 91 77 81
f 84 92 104
f 95 82 93
f 90 79 94
f 100 85 95
f 93 82 97
f 95 97 82
f 80 99 90
f 108 76 100
f 101 81 77
f 91 81 101
f 86 102 80
f 83 103 104
f 92 77 104
f 105 84 94
f 84 105 73
f 106 91 75
f 74 107 86
f 87 80 108
f 73 87 108
f 97 95 74
f 107 74 95
f 95 85 107
f 86 107 85
f 106 75 103
f 88 103 75
f 90 105 79
f 94 79 105
f 85 100 86
f 102 86 100
f 106 104 91
f 77 91 104
f 77 92 101
f 96 101 92
f 100 76 102
f 80 102 76
f 80 87 99
f 90 99 87
f 103 83 106
f 104 106 83
f 92 89 96
f 93 96 89
f 96 93 78
f 97 78 93
f 94 88 98
f 75 98 88
f 110 109 113
f 111 109 114
f 114 112 111
f 113 112 110
f 109 111 113
f 112 113 111
f 109 110 114
f 112 114 110
f 116 115 119
f 117 115 120
f 120 118 117
f 119 118 116
f 115 117 119
f 118 119 117
f 115 116 120
f 118 120 116
