# Exported from Webots PROTO
v -0.001000 -0.001000 0.000000
v 0.001000 -0.001000 0.000000
v 0.001000 0.001000 0.000000
v -0.001000 0.001000 0.000000
v -0.001000 -0.001000 0.004000
v 0.001000 -0.001000 0.004000
v 0.001000 0.001000 0.004000
v -0.001000 0.001000 0.004000
v -0.001000 -0.001000 0.000000
v 0.001000 -0.001000 0.000000
v 0.001000 0.001000 0.000000
v -0.001000 0.001000 0.000000
v -0.001000 -0.001000 0.004000
v 0.001000 -0.001000 0.004000
v 0.001000 0.001000 0.004000
v -0.001000 0.001000 0.004000
v -0.001000 -0.001000 0.000000
v 0.001000 -0.001000 0.000000
v 0.001000 0.001000 0.000000
v -0.001000 0.001000 0.000000
v -0.001000 -0.001000 0.004000
v 0.001000 -0.001000 0.004000
v 0.001000 0.001000 0.004000
v -0.001000 0.001000 0.004000
v -0.001000 -0.001000 0.000000
v 0.001000 -0.001000 0.000000
v 0.001000 0.001000 0.000000
v -0.001000 0.001000 0.000000
v -0.001000 -0.001000 0.004000
v 0.001000 -0.001000 0.004000
v 0.001000 0.001000 0.004000
v -0.001000 0.001000 0.004000
v -0.001000 -0.001000 0.000000
v 0.001000 -0.001000 0.000000
v 0.001000 0.001000 0.000000
v -0.001000 0.001000 0.000000
v -0.001000 -0.001000 0.004000
v 0.001000 -0.001000 0.004000
v 0.001000 0.001000 0.004000
v -0.001000 0.001000 0.004000
v -0.001000 -0.001000 0.000000
v 0.001000 -0.001000 0.000000
v 0.001000 0.001000 0.000000
v -0.001000 0.001000 0.000000
v -0.001000 -0.001000 0.004000
v 0.001000 -0.001000 0.004000
v 0.001000 0.001000 0.004000
v -0.001000 0.001000 0.004000
v -0.001000 -0.002000 0.001000
v 0.001000 -0.002000 0.001000
v 0.001000 0.002000 0.001000
v -0.001000 0.002000 0.001000
v -0.001000 -0.002000 0.003000
v 0.001000 -0.002000 0.003000
v 0.001000 0.002000 0.003000
v -0.001000 0.002000 0.003000
v -0.001000 -0.002000 0.001000
v 0.001000 -0.002000 0.001000
v 0.001000 0.002000 0.001000
v -0.001000 0.002000 0.001000
v -0.001000 -0.002000 0.003000
v 0.001000 -0.002000 0.003000
v 0.001000 0.002000 0.003000
v -0.001000 0.002000 0.003000
v -0.001000 -0.001000 0.001000
v 0.001000 -0.001000 0.001000
v 0.001000 0.001000 0.001000
v -0.001000 0.001000 0.001000
v -0.001000 -0.001000 0.003000
v 0.001000 -0.001000 0.003000
v 0.001000 0.001000 0.003000
v -0.001000 0.001000 0.003000
v -0.001000 -0.001000 0.001000
v 0.001000 -0.001000 0.001000
v 0.001000 0.001000 0.001000
v -0.001000 0.001000 0.001000
v -0.001000 -0.001000 0.003000
v 0.001000 -0.001000 0.003000
v 0.001000 0.001000 0.003000
v -0.001000 0.001000 0.003000
v 0.004000 0.000000 0.002000
v 0.004000 0.000000 0.152000
v 0.003864 0.001035 0.002000
v 0.003864 0.001035 0.152000
v 0.003464 0.002000 0.002000
v 0.003464 0.002000 0.152000
v 0.002828 0.002828 0.002000
v 0.002828 0.002828 0.152000
v 0.002000 0.003464 0.002000
v 0.002000 0.003464 0.152000
v 0.001035 0.003864 0.002000
v 0.001035 0.003864 0.152000
v 0.000000 0.004000 0.002000
v 0.000000 0.004000 0.152000
v -0.001035 0.003864 0.002000
v -0.001035 0.003864 0.152000
v -0.002000 0.003464 0.002000
v -0.002000 0.003464 0.152000
v -0.002828 0.002828 0.002000
v -0.002828 0.002828 0.152000
v -0.003464 0.002000 0.002000
v -0.003464 0.002000 0.152000
v -0.003864 0.001035 0.002000
v -0.003864 0.001035 0.152000
v -0.004000 0.000000 0.002000
v -0.004000 0.000000 0.152000
v -0.003864 -0.001035 0.002000
v -0.003864 -0.001035 0.152000
v -0.003464 -0.002000 0.002000
v -0.003464 -0.002000 0.152000
v -0.002828 -0.002828 0.002000
v -0.002828 -0.002828 0.152000
v -0.002000 -0.003464 0.002000
v -0.002000 -0.003464 0.152000
v -0.001035 -0.003864 0.002000
v -0.001035 -0.003864 0.152000
v 0.000000 -0.004000 0.002000
v 0.000000 -0.004000 0.152000
v 0.001035 -0.003864 0.002000
v 0.001035 -0.003864 0.152000
v 0.002000 -0.003464 0.002000
v 0.002000 -0.003464 0.152000
v 0.002828 -0.002828 0.002000
v 0.002828 -0.002828 0.152000
v 0.003464 -0.002000 0.002000
v 0.003464 -0.002000 0.152000
v 0.003864 -0.001035 0.002000
v 0.003864 -0.001035 0.152000
v 0.000000 0.000000 0.002000
v 0.000000 0.000000 0.152000
v 0.025263 0.048046 0.037070
v 0.025263 0.048046 0.038646
v 0.046679 0.036774 0.038646
v 0.046679 0.036771 0.037069
v 0.060988 0.019904 0.038661
v 0.060988 0.019904 0.037067
v 0.060988 -0.019900 0.037070
v 0.060988 -0.019895 0.038645
v 0.046678 -0.036765 0.038645
v 0.046678 -0.036771 0.037075
v 0.025262 -0.048037 0.038645
v 0.025262 -0.048037 0.037074
v -0.025262 -0.048045 0.037066
v -0.025262 -0.048037 0.038644
v -0.046678 -0.036765 0.038644
v -0.046678 -0.036770 0.037072
v -0.060987 -0.019895 0.038645
v -0.060987 -0.019894 0.037068
v -0.060987 0.019905 0.037068
v -0.060987 0.019904 0.038645
v -0.046677 0.036774 0.038645
v -0.046677 0.036773 0.037069
v -0.025261 0.048047 0.038645
v -0.025261 0.048047 0.037070
v 0.057760 0.012554 0.037069
v 0.057760 0.012554 0.038661
v 0.060273 0.000004 0.038645
v 0.060273 0.000004 0.037069
v 0.057760 -0.012546 0.038645
v 0.057760 -0.012546 0.037069
v -0.066012 0.000005 0.038645
v -0.066012 0.000005 0.037068
v 0.000001 0.052005 0.037069
v 0.000000 -0.051995 0.037068
v 0.000001 0.052005 0.038646
v -0.025261 0.048047 0.038645
v 0.000001 0.052005 0.038646
v 0.000000 -0.051995 0.038644
v 0.000000 -0.051995 0.038644
v -0.025262 -0.048037 0.038644
v -0.060987 0.019905 0.037068
v 0.060988 0.019904 0.037067
v -0.025255 -0.048052 0.002322
v -0.000001 -0.000006 0.002386
v -0.046675 -0.036770 0.002316
v -0.060984 -0.019888 0.002377
v -0.066005 -0.000014 0.002401
v -0.060984 0.019906 0.002387
v 0.046678 -0.036749 0.002343
v 0.025259 -0.048038 0.002327
v 0.055988 -0.022908 0.002384
v 0.025262 0.048049 0.002395
v 0.025263 0.048046 0.037070
v 0.046678 0.036771 0.037069
v 0.046678 0.036774 0.020349
v 0.046678 -0.036765 0.020293
v 0.046678 -0.036771 0.037075
v 0.025262 -0.048037 0.037074
v 0.000001 -0.000012 0.037055
v -0.025262 -0.048045 0.037066
v -0.046678 -0.036770 0.037072
v -0.060987 0.019905 0.020458
v -0.046677 0.036773 0.037069
v -0.046676 0.036775 0.002404
v -0.025261 0.048047 0.037070
v -0.025258 0.048048 0.002397
v 0.046679 0.036783 0.002410
v 0.055988 -0.022895 0.019793
v -0.060983 -0.019886 0.020356
v -0.066002 0.000005 0.019785
v 0.052760 -0.012545 0.002412
v 0.052260 -0.012545 0.020293
v 0.052761 0.012611 0.002363
v 0.052261 0.012554 0.020431
v 0.055273 0.000004 0.019793
v 0.055273 -0.000012 0.002428
v -0.060987 -0.019894 0.037068
v 0.055988 0.022915 0.002394
v 0.000001 -0.000012 0.037055
v 0.055988 0.022904 0.019885
v 0.060988 0.019904 0.020794
v 0.060988 -0.019895 0.020793
v 0.060988 -0.019900 0.037070
v 0.051760 -0.012534 0.037071
v 0.051760 0.012542 0.037060
v -0.060004 0.000005 0.020928
v -0.060012 0.000005 0.037068
v 0.050273 0.000016 0.037071
v 0.050273 0.000005 0.020793
v -0.026012 -0.011995 0.054343
v -0.026012 -0.011995 0.062342
v -0.026012 0.012005 0.062343
v -0.026012 0.012005 0.054343
v -0.012012 -0.011995 0.054343
v -0.012012 -0.011996 0.062342
v -0.012012 0.012004 0.062343
v -0.012012 0.012005 0.054343
v 0.032488 0.034784 0.054234
v 0.036559 0.031827 0.054234
v 0.035004 0.027042 0.054234
v 0.029973 0.027042 0.054234
v 0.028418 0.031827 0.054234
v 0.032488 0.033149 0.056484
v 0.035004 0.031322 0.056484
v 0.034043 0.028364 0.056484
v 0.030934 0.028364 0.056484
v 0.029973 0.031322 0.056484
v 0.032488 0.030504 0.057343
v 0.032488 -0.029216 0.054233
v 0.036558 -0.032173 0.054233
v 0.035003 -0.036958 0.054233
v 0.029972 -0.036958 0.054233
v 0.028418 -0.032173 0.054233
v 0.032488 -0.030851 0.056483
v 0.035003 -0.032678 0.056483
v 0.034043 -0.035636 0.056483
v 0.030933 -0.035636 0.056483
v 0.029972 -0.032678 0.056483
v 0.032488 -0.033496 0.057342
v -0.032512 -0.025215 0.054233
v -0.028442 -0.028173 0.054233
v -0.029997 -0.032958 0.054233
v -0.035028 -0.032958 0.054233
v -0.036582 -0.028173 0.054233
v -0.032512 -0.026850 0.056483
v -0.029997 -0.028678 0.056483
v -0.030957 -0.031635 0.056483
v -0.034067 -0.031635 0.056483
v -0.035028 -0.028678 0.056483
v -0.032512 -0.029495 0.057342
v -0.032512 0.032785 0.054234
v -0.028441 0.029827 0.054234
v -0.029996 0.025042 0.054233
v -0.035027 0.025042 0.054233
v -0.036582 0.029827 0.054234
v -0.032512 0.031150 0.056483
v -0.029996 0.029322 0.056483
v -0.030957 0.026365 0.056483
v -0.034066 0.026365 0.056483
v -0.035027 0.029322 0.056483
v -0.032512 0.028505 0.057343
v 0.000001 0.052005 0.038646
v 0.025263 0.048046 0.038646
v 0.046679 0.036774 0.038646
v 0.060988 0.019904 0.038661
v 0.060273 0.000004 0.038645
v 0.060988 -0.019895 0.038645
v 0.046678 -0.036765 0.038645
v 0.025262 -0.048037 0.038645
v 0.000000 -0.051995 0.038645
v -0.025262 -0.048037 0.038645
v -0.046678 -0.036765 0.038645
v -0.060987 -0.019895 0.038645
v -0.066012 0.000005 0.038645
v -0.060987 0.019904 0.038645
v -0.046677 0.036774 0.038645
v -0.025261 0.048047 0.038646
v 0.057760 -0.012546 0.038645
v 0.057760 0.012554 0.038661
v 0.000001 0.052004 0.048343
v 0.025263 0.048046 0.048343
v 0.046678 0.036774 0.048343
v 0.060988 0.019904 0.048343
v 0.060273 0.000004 0.048343
v 0.060988 -0.019895 0.048343
v 0.046678 -0.036765 0.048343
v 0.025262 -0.048037 0.048342
v 0.000000 -0.051996 0.048342
v -0.025262 -0.048037 0.048342
v -0.046678 -0.036765 0.048342
v -0.060987 -0.019895 0.048342
v -0.066012 0.000005 0.048343
v -0.060987 0.019904 0.048343
v -0.046677 0.036774 0.048343
v -0.025261 0.048046 0.048343
v 0.000001 0.000005 0.048343
v 0.057760 -0.012546 0.048343
v 0.057760 0.012554 0.048343
v 0.019961 0.029780 0.048343
v 0.028611 0.041004 0.048343
v 0.034150 0.040688 0.048343
v 0.044413 0.032594 0.048343
v 0.052171 0.021528 0.048343
v 0.056988 0.007491 0.048343
v 0.056988 -0.008151 0.048343
v 0.052682 -0.020288 0.048343
v 0.044925 -0.032304 0.048343
v 0.034149 -0.040872 0.048342
v 0.029123 -0.040714 0.048342
v 0.020985 -0.029490 0.048343
v -0.021240 -0.029490 0.048342
v -0.026779 -0.036052 0.048342
v -0.034024 -0.037670 0.048342
v -0.046165 -0.030914 0.048342
v -0.054814 -0.020798 0.048342
v -0.060012 -0.010366 0.048343
v -0.060012 0.010182 0.048343
v -0.055156 0.020773 0.048343
v -0.046164 0.030731 0.048343
v -0.033853 0.037961 0.048343
v -0.026778 0.035868 0.048343
v -0.021239 0.029781 0.048343
v 0.000916 -0.000092 0.048343
v 0.019961 0.029780 0.054343
v 0.028611 0.041004 0.054343
v 0.034150 0.040688 0.054343
v 0.044413 0.032594 0.054343
v 0.052171 0.021528 0.054343
v 0.056988 0.007491 0.054343
v 0.056988 -0.008151 0.054343
v 0.052682 -0.020288 0.054343
v 0.044925 -0.032304 0.054343
v 0.034149 -0.040872 0.054342
v 0.029122 -0.040714 0.054342
v 0.020985 -0.029490 0.054343
v -0.021240 -0.029490 0.054342
v -0.026779 -0.036052 0.054342
v -0.034024 -0.037670 0.054342
v -0.046165 -0.030914 0.054342
v -0.054814 -0.020798 0.054342
v -0.060012 -0.010366 0.054343
v -0.060012 0.010182 0.054343
v -0.055156 0.020773 0.054343
v -0.046164 0.030731 0.054343
v -0.033853 0.037961 0.054343
v -0.026778 0.035868 0.054343
v -0.021239 0.029781 0.054343
v 0.000916 -0.000092 0.054343
f 1 2 3 4
f 5 8 7 6
f 1 5 6 2
f 3 7 8 4
f 1 4 8 5
f 2 6 7 3
f 9 10 11 12
f 13 16 15 14
f 9 13 14 10
f 11 15 16 12
f 9 12 16 13
f 10 14 15 11
f 17 18 19 20
f 21 24 23 22
f 17 21 22 18
f 19 23 24 20
f 17 20 24 21
f 18 22 23 19
f 25 26 27 28
f 29 32 31 30
f 25 29 30 26
f 27 31 32 28
f 25 28 32 29
f 26 30 31 27
f 33 34 35 36
f 37 40 39 38
f 33 37 38 34
f 35 39 40 36
f 33 36 40 37
f 34 38 39 35
f 41 42 43 44
f 45 48 47 46
f 41 45 46 42
f 43 47 48 44
f 41 44 48 45
f 42 46 47 43
f 49 50 51 52
f 53 56 55 54
f 49 53 54 50
f 51 55 56 52
f 49 52 56 53
f 50 54 55 51
f 57 58 59 60
f 61 64 63 62
f 57 61 62 58
f 59 63 64 60
f 57 60 64 61
f 58 62 63 59
f 65 66 67 68
f 69 72 71 70
f 65 69 70 66
f 67 71 72 68
f 65 68 72 69
f 66 70 71 67
f 73 74 75 76
f 77 80 79 78
f 73 77 78 74
f 75 79 80 76
f 73 76 80 77
f 74 78 79 75
f 81 83 84 82
f 83 85 86 84
f 85 87 88 86
f 87 89 90 88
f 89 91 92 90
f 91 93 94 92
f 93 95 96 94
f 95 97 98 96
f 97 99 100 98
f 99 101 102 100
f 101 103 104 102
f 103 105 106 104
f 105 107 108 106
f 107 109 110 108
f 109 111 112 110
f 111 113 114 112
f 113 115 116 114
f 115 117 118 116
f 117 119 120 118
f 119 121 122 120
f 121 123 124 122
f 123 125 126 124
f 125 127 128 126
f 127 81 82 128
f 129 83 81
f 129 85 83
f 129 87 85
f 129 89 87
f 129 91 89
f 129 93 91
f 129 95 93
f 129 97 95
f 129 99 97
f 129 101 99
f 129 103 101
f 129 105 103
f 129 107 105
f 129 109 107
f 129 111 109
f 129 113 111
f 129 115 113
f 129 117 115
f 129 119 117
f 129 121 119
f 129 123 121
f 129 125 123
f 129 127 125
f 129 81 127
f 130 82 84
f 130 84 86
f 130 86 88
f 130 88 90
f 130 90 92
f 130 92 94
f 130 94 96
f 130 96 98
f 130 98 100
f 130 100 102
f 130 102 104
f 130 104 106
f 130 106 108
f 130 108 110
f 130 110 112
f 130 112 114
f 130 114 116
f 130 116 118
f 130 118 120
f 130 120 122
f 130 122 124
f 130 124 126
f 130 126 128
f 130 128 82
f 133 134 131 132
f 135 136 134 133
f 139 140 137 138
f 141 142 140 139
f 145 146 143 144
f 147 148 146 145
f 151 152 149 150
f 153 154 152 151
f 157 158 155 156
f 159 160 158 157
f 161 162 148 147
f 150 149 162 161
f 158 160 148 162 149 155
f 148 160 137
f 138 137 160 159
f 136 155 149
f 136 135 156 155
f 163 131 142 164 143 154
f 132 131 163 165
f 167 163 154 166
f 168 164 142 141
f 170 143 164 169
f 183 184 185 182
f 187 188 180 186
f 188 189 174 180
f 189 190 173 174
f 190 191 175 173
f 171 193 194 192
f 193 195 196 194
f 197 182 185
f 198 186 179 181
f 180 179 186
f 176 175 199
f 199 200 177 176
f 200 192 178 177
f 202 198 181 201
f 204 205 206 203
f 205 202 201 206
f 191 207 199 175
f 209 183 182 174
f 195 209 174 196
f 185 210 208 197
f 194 178 192
f 210 204 203 208
f 184 172 211 185
f 213 187 186 212
f 214 213 212 202
f 172 215 204 211
f 211 204 210
f 185 211 210
f 212 186 198
f 212 198 202
f 217 171 192 216
f 215 218 219 204
f 218 214 202 219
f 216 192 200
f 216 200 199
f 205 204 219
f 202 205 219
f 207 217 216 199
f 220 221 222 223
f 226 227 223 222
f 227 226 225 224
f 224 225 221 220
f 221 225 226 222
f 224 220 223 227
f 228 233 234
f 234 229 228
f 230 229 234
f 234 235 230
f 230 235 236
f 236 231 230
f 232 231 236
f 236 237 232
f 232 237 233
f 233 228 232
f 238 234 233
f 238 235 234
f 238 236 235
f 238 237 236
f 238 233 237
f 239 244 245
f 245 240 239
f 241 240 245
f 245 246 241
f 241 246 247
f 247 242 241
f 243 242 247
f 247 248 243
f 243 248 244
f 244 239 243
f 249 245 244
f 249 246 245
f 249 247 246
f 249 248 247
f 249 244 248
f 250 255 256
f 256 251 250
f 252 251 256
f 256 257 252
f 252 257 258
f 258 253 252
f 254 253 258
f 258 259 254
f 254 259 255
f 255 250 254
f 260 256 255
f 260 257 256
f 260 258 257
f 260 259 258
f 260 255 259
f 261 266 267
f 267 262 261
f 263 262 267
f 267 268 263
f 263 268 269
f 269 264 263
f 265 264 269
f 269 270 265
f 265 270 266
f 266 261 265
f 271 267 266
f 271 268 267
f 271 269 268
f 271 270 269
f 271 266 270
f 306 291 290
f 306 292 291
f 306 293 292
f 306 296 295
f 306 297 296
f 306 298 297
f 306 299 298
f 306 300 299
f 306 301 300
f 306 302 301
f 306 303 302
f 306 304 303
f 306 305 304
f 306 290 305
f 306 295 307
f 306 294 308
f 306 308 293
f 306 307 294
f 272 290 291 273
f 273 291 292 274
f 274 292 293 275
f 277 295 296 278
f 278 296 297 279
f 279 297 298 280
f 280 298 299 281
f 281 299 300 282
f 282 300 301 283
f 283 301 302 284
f 284 302 303 285
f 285 303 304 286
f 286 304 305 287
f 287 305 290 272
f 288 307 295 277
f 289 308 294 276
f 275 293 308 289
f 276 294 307 288
f 335 334 358
f 336 335 358
f 337 336 358
f 338 337 358
f 339 338 358
f 340 339 358
f 341 340 358
f 342 341 358
f 343 342 358
f 344 343 358
f 345 344 358
f 346 345 358
f 347 346 358
f 348 347 358
f 349 348 358
f 350 349 358
f 351 350 358
f 352 351 358
f 353 352 358
f 354 353 358
f 355 354 358
f 356 355 358
f 357 356 358
f 334 357 358
f 309 334 335 310
f 310 335 336 311
f 311 336 337 312
f 312 337 338 313
f 313 338 339 314
f 314 339 340 315
f 315 340 341 316
f 316 341 342 317
f 317 342 343 318
f 318 343 344 319
f 319 344 345 320
f 320 345 346 321
f 321 346 347 322
f 322 347 348 323
f 323 348 349 324
f 324 349 350 325
f 325 350 351 326
f 326 351 352 327
f 327 352 353 328
f 328 353 354 329
f 329 354 355 330
f 330 355 356 331
f 331 356 357 332
f 332 357 334 309
