# Exported from Webots PROTO
v 0.018500 0.000029 0.006125
v 0.017092 0.007300 0.006125
v 0.013082 0.013464 0.006125
v 0.007080 0.017583 0.006125
v 0.000000 0.019029 0.006125
v -0.007079 0.017583 0.006125
v -0.013081 0.013464 0.006125
v -0.017092 0.007300 0.006125
v -0.018500 0.000029 0.006125
v -0.017092 -0.007242 0.006125
v -0.013081 -0.013406 0.006125
v -0.007080 -0.017525 0.006125
v 0.000000 -0.018971 0.006125
v 0.007080 -0.017525 0.006125
v 0.013082 -0.013406 0.006125
v 0.017092 -0.007242 0.006125
v 0.000000 -0.018971 -0.004375
v -0.001311 -0.010259 -0.004375
v 0.001573 -0.012316 -0.006125
v -0.002098 -0.016431 -0.006125
v -0.007080 -0.017525 -0.004375
v -0.006720 -0.010301 -0.006125
v -0.013082 -0.013406 -0.004375
v -0.008381 -0.005723 -0.004375
v -0.013410 -0.009174 -0.006125
v -0.017092 -0.007242 -0.004375
v -0.011864 -0.002395 -0.006125
v -0.018500 0.000029 -0.004375
v -0.009887 0.002049 -0.004375
v -0.015819 0.003261 -0.006125
v -0.017092 0.007300 -0.004375
v -0.010058 0.006931 -0.006125
v -0.013081 0.013464 -0.004375
v -0.005600 0.008637 -0.004375
v -0.008960 0.013802 -0.006125
v -0.007079 0.017583 -0.004375
v -0.002360 0.012214 -0.006125
v 0.000000 0.019029 -0.004375
v 0.001967 0.010183 -0.004375
v 0.003147 0.016275 -0.006125
v 0.007080 0.017583 -0.004375
v 0.006721 0.010359 -0.006125
v 0.013081 0.013464 -0.004375
v 0.008382 0.005781 -0.004375
v 0.013410 0.009232 -0.006125
v 0.017092 0.007300 -0.004375
v 0.011864 0.002453 -0.006125
v 0.018500 0.000029 -0.004375
v 0.009887 -0.001991 -0.004375
v 0.015819 -0.003203 -0.006125
v 0.017092 -0.007242 -0.004375
v 0.010058 -0.006873 -0.006125
v 0.013081 -0.013406 -0.004375
v 0.005600 -0.008579 -0.004375
v 0.008961 -0.013744 -0.006125
v 0.007080 -0.017525 -0.004375
v 0.017092 0.007300 0.006125
v -0.017092 0.007300 0.006125
v -0.017092 -0.007242 0.006125
v 0.017092 -0.007242 0.006125
v 0.018500 0.000029 0.006125
v 0.017092 0.007300 0.006125
v 0.013082 0.013464 0.006125
v 0.007080 0.017583 0.006125
v 0.000000 0.019029 0.006125
v -0.007079 0.017583 0.006125
v -0.013081 0.013464 0.006125
v -0.017092 0.007300 0.006125
v -0.018500 0.000029 0.006125
v -0.017092 -0.007242 0.006125
v -0.013081 -0.013406 0.006125
v -0.007080 -0.017525 0.006125
v 0.000000 -0.018971 0.006125
v 0.007080 -0.017525 0.006125
v 0.013082 -0.013406 0.006125
v 0.017092 -0.007242 0.006125
v 0.002678 0.001562 -0.003718
v -0.001503 0.002778 -0.003718
v -0.002678 -0.001508 -0.003718
v 0.001429 -0.002733 -0.003718
v 0.001789 -0.011691 -0.004375
v 0.001429 -0.002733 -0.003718
v -0.006674 -0.010011 -0.004375
v -0.002678 -0.001508 -0.003718
v -0.012273 -0.002110 -0.004375
v -0.009694 0.006855 -0.004375
v -0.001503 0.002778 -0.003718
v -0.002205 0.011854 -0.004375
v 0.006555 0.009831 -0.004375
v 0.002678 0.001562 -0.003718
v 0.011438 0.002407 -0.004375
v 0.009814 -0.006319 -0.004375
f 12 21 17 13
f 22 18 19
f 22 19 20
f 21 20 17
f 11 23 21 12
f 24 18 22
f 25 22 20
f 23 25 20 21
f 10 26 23 11
f 27 24 22
f 27 22 25
f 26 25 23
f 9 28 26 10
f 29 24 27
f 30 27 25
f 28 30 25 26
f 8 31 28 9
f 32 29 27
f 32 27 30
f 31 30 28
f 7 33 31 8
f 34 29 32
f 35 32 30
f 33 35 30 31
f 6 36 33 7
f 37 34 32
f 37 32 35
f 36 35 33
f 5 38 36 6
f 39 34 37
f 40 37 35
f 38 40 35 36
f 4 41 38 5
f 42 39 37
f 42 37 40
f 41 40 38
f 3 43 41 4
f 44 39 42
f 45 42 40
f 43 45 40 41
f 2 46 43 3
f 47 44 42
f 47 42 45
f 46 45 43
f 1 48 46 2
f 49 44 47
f 50 47 45
f 48 50 45 46
f 16 51 48 1
f 52 49 47
f 52 47 50
f 51 50 48
f 15 53 51 16
f 54 49 52
f 55 52 50
f 53 55 50 51
f 14 56 53 15
f 19 54 52
f 19 52 55
f 56 55 53
f 13 17 56 14
f 18 54 19
f 20 19 55
f 17 20 55 56
f 61 62 63 64 65 66 67 68 69 70 71 72 73 74 75 76
f 80 79 78 77
f 81 83 84 82
f 83 85 84
f 85 86 87 84
f 86 88 87
f 88 89 90 87
f 89 91 90
f 91 92 82 90
f 92 81 82
