# Exported from Webots PROTO
v 0.086000 0.000000 0.219000
v 0.086000 0.000000 0.221000
v 0.083003 0.030434 0.219000
v 0.083003 0.030434 0.221000
v 0.074125 0.059699 0.219000
v 0.074125 0.059699 0.221000
v 0.059709 0.086669 0.219000
v 0.059709 0.086669 0.221000
v 0.040309 0.110309 0.219000
v 0.040309 0.110309 0.221000
v 0.016669 0.129709 0.219000
v 0.016669 0.129709 0.221000
v -0.010301 0.144125 0.219000
v -0.010301 0.144125 0.221000
v -0.039566 0.153003 0.219000
v -0.039566 0.153003 0.221000
v -0.070000 0.156000 0.219000
v -0.070000 0.156000 0.221000
v -0.100434 0.153003 0.219000
v -0.100434 0.153003 0.221000
v -0.129699 0.144125 0.219000
v -0.129699 0.144125 0.221000
v -0.156669 0.129709 0.219000
v -0.156669 0.129709 0.221000
v -0.180309 0.110309 0.219000
v -0.180309 0.110309 0.221000
v -0.199709 0.086669 0.219000
v -0.199709 0.086669 0.221000
v -0.214125 0.059699 0.219000
v -0.214125 0.059699 0.221000
v -0.223003 0.030434 0.219000
v -0.223003 0.030434 0.221000
v -0.226000 0.000000 0.219000
v -0.226000 0.000000 0.221000
v -0.223003 -0.030434 0.219000
v -0.223003 -0.030434 0.221000
v -0.214125 -0.059699 0.219000
v -0.214125 -0.059699 0.221000
v -0.199709 -0.086669 0.219000
v -0.199709 -0.086669 0.221000
v -0.180309 -0.110309 0.219000
v -0.180309 -0.110309 0.221000
v -0.156669 -0.129709 0.219000
v -0.156669 -0.129709 0.221000
v -0.129699 -0.144125 0.219000
v -0.129699 -0.144125 0.221000
v -0.100434 -0.153003 0.219000
v -0.100434 -0.153003 0.221000
v -0.070000 -0.156000 0.219000
v -0.070000 -0.156000 0.221000
v -0.039566 -0.153003 0.219000
v -0.039566 -0.153003 0.221000
v -0.010301 -0.144125 0.219000
v -0.010301 -0.144125 0.221000
v 0.016669 -0.129709 0.219000
v 0.016669 -0.129709 0.221000
v 0.040309 -0.110309 0.219000
v 0.040309 -0.110309 0.221000
v 0.059709 -0.086669 0.219000
v 0.059709 -0.086669 0.221000
v 0.074125 -0.059699 0.219000
v 0.074125 -0.059699 0.221000
v 0.083003 -0.030434 0.219000
v 0.083003 -0.030434 0.221000
v -0.070000 0.000000 0.219000
v -0.070000 0.000000 0.221000
v 0.092749 -0.000001 0.014852
v 0.092751 -0.000001 0.016952
v 0.089622 -0.031752 0.014854
v 0.089624 -0.031752 0.016954
v 0.080360 -0.062282 0.014859
v 0.080361 -0.062282 0.016959
v 0.065321 -0.090420 0.014868
v 0.065322 -0.090420 0.016968
v 0.045080 -0.115081 0.014880
v 0.045081 -0.115081 0.016980
v 0.020418 -0.135322 0.014894
v 0.020419 -0.135322 0.016994
v -0.049001 -0.135322 0.014936
v -0.049000 -0.135322 0.017036
v -0.049001 -0.159623 0.014936
v -0.049000 -0.159623 0.017036
v -0.070001 -0.162750 0.014948
v -0.070000 -0.162750 0.017048
v -0.101752 -0.159623 0.014967
v -0.101751 -0.159623 0.017067
v -0.132283 -0.150361 0.014986
v -0.132282 -0.150361 0.017086
v -0.160420 -0.135322 0.015003
v -0.160419 -0.135322 0.017103
v -0.185082 -0.115081 0.015018
v -0.185081 -0.115081 0.017118
v -0.205323 -0.090419 0.015030
v -0.205322 -0.090419 0.017130
v -0.220362 -0.062281 0.015040
v -0.220361 -0.062281 0.017140
v -0.229624 -0.031750 0.015045
v -0.229623 -0.031750 0.017145
v -0.232751 0.000001 0.015048
v -0.232749 0.000001 0.017148
v -0.229624 0.031752 0.015046
v -0.229622 0.031752 0.017146
v -0.220361 0.062282 0.015041
v -0.220360 0.062282 0.017141
v -0.205322 0.090420 0.015032
v -0.205321 0.090420 0.017132
v -0.185081 0.115083 0.015020
v -0.185080 0.115083 0.017120
v -0.160419 0.135322 0.015006
v -0.160418 0.135322 0.017106
v -0.132282 0.150361 0.014989
v -0.132280 0.150361 0.017089
v -0.101751 0.159623 0.014971
v -0.101750 0.159623 0.017071
v -0.070000 0.162750 0.014952
v -0.069999 0.162750 0.017052
v -0.049000 0.159623 0.014939
v -0.048999 0.159623 0.017039
v -0.049000 0.135322 0.014939
v -0.048999 0.135322 0.017039
v 0.020419 0.135322 0.014897
v 0.020420 0.135322 0.016997
v 0.045082 0.115081 0.014882
v 0.045083 0.115081 0.016982
v 0.065322 0.090418 0.014870
v 0.065323 0.090418 0.016970
v 0.080361 0.062281 0.014860
v 0.080362 0.062281 0.016960
v 0.089623 0.031750 0.014855
v 0.089624 0.031750 0.016955
v 0.092749 -0.000001 0.059852
v 0.092751 -0.000001 0.061952
v 0.089622 -0.031752 0.059854
v 0.089624 -0.031752 0.061954
v 0.080360 -0.062282 0.059859
v 0.080361 -0.062282 0.061959
v 0.065321 -0.090420 0.059868
v 0.065322 -0.090420 0.061968
v 0.045080 -0.115081 0.059880
v 0.045081 -0.115081 0.061980
v 0.020418 -0.135322 0.059894
v 0.020419 -0.135322 0.061994
v -0.049001 -0.135322 0.059936
v -0.049000 -0.135322 0.062036
v -0.049001 -0.159623 0.059936
v -0.049000 -0.159623 0.062036
v -0.070001 -0.162750 0.059948
v -0.070000 -0.162750 0.062048
v -0.101752 -0.159623 0.059967
v -0.101751 -0.159623 0.062067
v -0.132283 -0.150361 0.059986
v -0.132282 -0.150361 0.062086
v -0.160420 -0.135322 0.060003
v -0.160419 -0.135322 0.062103
v -0.185082 -0.115081 0.060018
v -0.185081 -0.115081 0.062118
v -0.205323 -0.090419 0.060030
v -0.205322 -0.090419 0.062130
v -0.220362 -0.062281 0.060040
v -0.220361 -0.062281 0.062140
v -0.229624 -0.031750 0.060045
v -0.229623 -0.031750 0.062145
v -0.232751 0.000001 0.060048
v -0.232749 0.000001 0.062148
v -0.229624 0.031752 0.060046
v -0.229622 0.031752 0.062146
v -0.220361 0.062282 0.060041
v -0.220360 0.062282 0.062141
v -0.205322 0.090420 0.060032
v -0.205321 0.090420 0.062132
v -0.185081 0.115083 0.060020
v -0.185080 0.115083 0.062120
v -0.160419 0.135322 0.060006
v -0.160418 0.135322 0.062106
v -0.132282 0.150361 0.059989
v -0.132280 0.150361 0.062089
v -0.101751 0.159623 0.059971
v -0.101750 0.159623 0.062071
v -0.070000 0.162750 0.059952
v -0.069999 0.162750 0.062052
v -0.049000 0.159623 0.059939
v -0.048999 0.159623 0.062039
v -0.049000 0.135322 0.059939
v -0.048999 0.135322 0.062039
v 0.020419 0.135322 0.059897
v 0.020420 0.135322 0.061997
v 0.045082 0.115081 0.059882
v 0.045083 0.115081 0.061982
v 0.065322 0.090418 0.059870
v 0.065323 0.090418 0.061970
v 0.080361 0.062281 0.059860
v 0.080362 0.062281 0.061960
v 0.089623 0.031750 0.059855
v 0.089624 0.031750 0.061955
v -0.081503 0.000000 0.120003
v -0.072503 0.000000 0.119997
v -0.081503 0.001294 0.120173
v -0.072503 0.001294 0.120168
v -0.081503 0.002500 0.120673
v -0.072503 0.002500 0.120667
v -0.081502 0.003536 0.121467
v -0.072502 0.003536 0.121462
v -0.081502 0.004330 0.122503
v -0.072502 0.004330 0.122497
v -0.081501 0.004830 0.123709
v -0.072501 0.004830 0.123703
v -0.081500 0.005000 0.125003
v -0.072500 0.005000 0.124997
v -0.081499 0.004830 0.126297
v -0.072499 0.004830 0.126291
v -0.081498 0.004330 0.127503
v -0.072498 0.004330 0.127497
v -0.081498 0.003536 0.128538
v -0.072498 0.003536 0.128533
v -0.081497 0.002500 0.129333
v -0.072497 0.002500 0.129327
v -0.081497 0.001294 0.129832
v -0.072497 0.001294 0.129827
v -0.081497 0.000000 0.130003
v -0.072497 0.000000 0.129997
v -0.081497 -0.001294 0.129832
v -0.072497 -0.001294 0.129827
v -0.081497 -0.002500 0.129333
v -0.072497 -0.002500 0.129327
v -0.081498 -0.003536 0.128538
v -0.072498 -0.003536 0.128533
v -0.081498 -0.004330 0.127503
v -0.072498 -0.004330 0.127497
v -0.081499 -0.004830 0.126297
v -0.072499 -0.004830 0.126291
v -0.081500 -0.005000 0.125003
v -0.072500 -0.005000 0.124997
v -0.081501 -0.004830 0.123709
v -0.072501 -0.004830 0.123703
v -0.081502 -0.004330 0.122503
v -0.072502 -0.004330 0.122497
v -0.081502 -0.003536 0.121467
v -0.072502 -0.003536 0.121462
v -0.081503 -0.002500 0.120673
v -0.072503 -0.002500 0.120667
v -0.081503 -0.001294 0.120173
v -0.072503 -0.001294 0.120168
v -0.081500 0.000000 0.125003
v -0.072500 0.000000 0.124997
v -0.072500 -0.005000 0.110000
v -0.067500 -0.005000 0.110000
v -0.067500 0.005000 0.110000
v -0.072500 0.005000 0.110000
v -0.072500 -0.005000 0.140000
v -0.067500 -0.005000 0.140000
v -0.067500 0.005000 0.140000
v -0.072500 0.005000 0.140000
v 0.068582 0.057403 0.018000
v 0.068582 0.057403 0.218000
v -0.012598 0.138582 0.018000
v -0.012598 0.138582 0.218000
v -0.127403 0.138582 0.018000
v -0.127403 0.138582 0.218000
v -0.208582 0.057402 0.018000
v -0.208582 0.057402 0.218000
v -0.208582 -0.057403 0.018000
v -0.208582 -0.057403 0.218000
v -0.127402 -0.138582 0.018000
v -0.127402 -0.138582 0.218000
v -0.012597 -0.138582 0.018000
v -0.012597 -0.138582 0.218000
v 0.068582 -0.057402 0.018000
v 0.068582 -0.057402 0.218000
v -0.070000 0.000000 0.018000
v -0.070000 0.000000 0.218000
v -0.196000 0.000000 0.010000
v -0.196000 0.000000 0.020000
v -0.196477 0.003623 0.010000
v -0.196477 0.003623 0.020000
v -0.197876 0.007000 0.010000
v -0.197876 0.007000 0.020000
v -0.200101 0.009899 0.010000
v -0.200101 0.009899 0.020000
v -0.203000 0.012124 0.010000
v -0.203000 0.012124 0.020000
v -0.206377 0.013523 0.010000
v -0.206377 0.013523 0.020000
v -0.210000 0.014000 0.010000
v -0.210000 0.014000 0.020000
v -0.213623 0.013523 0.010000
v -0.213623 0.013523 0.020000
v -0.217000 0.012124 0.010000
v -0.217000 0.012124 0.020000
v -0.219899 0.009899 0.010000
v -0.219899 0.009899 0.020000
v -0.222124 0.007000 0.010000
v -0.222124 0.007000 0.020000
v -0.223523 0.003623 0.010000
v -0.223523 0.003623 0.020000
v -0.224000 0.000000 0.010000
v -0.224000 0.000000 0.020000
v -0.223523 -0.003623 0.010000
v -0.223523 -0.003623 0.020000
v -0.222124 -0.007000 0.010000
v -0.222124 -0.007000 0.020000
v -0.219899 -0.009899 0.010000
v -0.219899 -0.009899 0.020000
v -0.217000 -0.012124 0.010000
v -0.217000 -0.012124 0.020000
v -0.213623 -0.013523 0.010000
v -0.213623 -0.013523 0.020000
v -0.210000 -0.014000 0.010000
v -0.210000 -0.014000 0.020000
v -0.206377 -0.013523 0.010000
v -0.206377 -0.013523 0.020000
v -0.203000 -0.012124 0.010000
v -0.203000 -0.012124 0.020000
v -0.200101 -0.009899 0.010000
v -0.200101 -0.009899 0.020000
v -0.197876 -0.007000 0.010000
v -0.197876 -0.007000 0.020000
v -0.196477 -0.003623 0.010000
v -0.196477 -0.003623 0.020000
v -0.210000 0.000000 0.010000
v -0.210000 0.000000 0.020000
v -0.210000 0.000000 0.020000
v -0.210000 0.000000 0.020000
v -0.210000 0.000000 0.020000
v -0.210000 0.000000 0.020000
v -0.210000 0.000000 0.020000
v -0.210000 0.000000 0.020000
v -0.210000 0.000000 0.020000
v -0.210000 0.000000 0.020000
v -0.210000 0.000000 0.020000
v -0.210000 0.000000 0.020000
v -0.210000 0.000000 0.020000
v -0.210000 0.000000 0.020000
v -0.210000 0.000000 0.020000
v -0.210000 0.000000 0.020000
v -0.210000 0.000000 0.020000
v -0.210000 0.000000 0.020000
v -0.207412 0.000000 0.019659
v -0.207609 0.000990 0.019659
v -0.208170 0.001830 0.019659
v -0.209010 0.002391 0.019659
v -0.210000 0.002588 0.019659
v -0.210990 0.002391 0.019659
v -0.211830 0.001830 0.019659
v -0.212391 0.000990 0.019659
v -0.212588 0.000000 0.019659
v -0.212391 -0.000990 0.019659
v -0.211830 -0.001830 0.019659
v -0.210990 -0.002391 0.019659
v -0.210000 -0.002588 0.019659
v -0.209010 -0.002391 0.019659
v -0.208170 -0.001830 0.019659
v -0.207609 -0.000990 0.019659
v -0.205000 0.000000 0.018660
v -0.205381 0.001913 0.018660
v -0.206464 0.003536 0.018660
v -0.208087 0.004619 0.018660
v -0.210000 0.005000 0.018660
v -0.211913 0.004619 0.018660
v -0.213536 0.003536 0.018660
v -0.214619 0.001913 0.018660
v -0.215000 0.000000 0.018660
v -0.214619 -0.001913 0.018660
v -0.213536 -0.003536 0.018660
v -0.211913 -0.004619 0.018660
v -0.210000 -0.005000 0.018660
v -0.208087 -0.004619 0.018660
v -0.206464 -0.003536 0.018660
v -0.205381 -0.001913 0.018660
v -0.202929 0.000000 0.017071
v -0.203467 0.002706 0.017071
v -0.205000 0.005000 0.017071
v -0.207294 0.006533 0.017071
v -0.210000 0.007071 0.017071
v -0.212706 0.006533 0.017071
v -0.215000 0.005000 0.017071
v -0.216533 0.002706 0.017071
v -0.217071 0.000000 0.017071
v -0.216533 -0.002706 0.017071
v -0.215000 -0.005000 0.017071
v -0.212706 -0.006533 0.017071
v -0.210000 -0.007071 0.017071
v -0.207294 -0.006533 0.017071
v -0.205000 -0.005000 0.017071
v -0.203467 -0.002706 0.017071
v -0.201340 0.000000 0.015000
v -0.201999 0.003314 0.015000
v -0.203876 0.006124 0.015000
v -0.206686 0.008001 0.015000
v -0.210000 0.008660 0.015000
v -0.213314 0.008001 0.015000
v -0.216124 0.006124 0.015000
v -0.218001 0.003314 0.015000
v -0.218660 0.000000 0.015000
v -0.218001 -0.003314 0.015000
v -0.216124 -0.006124 0.015000
v -0.213314 -0.008001 0.015000
v -0.210000 -0.008660 0.015000
v -0.206686 -0.008001 0.015000
v -0.203876 -0.006124 0.015000
v -0.201999 -0.003314 0.015000
v -0.200341 0.000000 0.012588
v -0.201076 0.003696 0.012588
v -0.203170 0.006830 0.012588
v -0.206304 0.008924 0.012588
v -0.210000 0.009659 0.012588
v -0.213696 0.008924 0.012588
v -0.216830 0.006830 0.012588
v -0.218924 0.003696 0.012588
v -0.219659 0.000000 0.012588
v -0.218924 -0.003696 0.012588
v -0.216830 -0.006830 0.012588
v -0.213696 -0.008924 0.012588
v -0.210000 -0.009659 0.012588
v -0.206304 -0.008924 0.012588
v -0.203170 -0.006830 0.012588
v -0.201076 -0.003696 0.012588
v -0.200000 0.000000 0.010000
v -0.200761 0.003827 0.010000
v -0.202929 0.007071 0.010000
v -0.206173 0.009239 0.010000
v -0.210000 0.010000 0.010000
v -0.213827 0.009239 0.010000
v -0.217071 0.007071 0.010000
v -0.219239 0.003827 0.010000
v -0.220000 0.000000 0.010000
v -0.219239 -0.003827 0.010000
v -0.217071 -0.007071 0.010000
v -0.213827 -0.009239 0.010000
v -0.210000 -0.010000 0.010000
v -0.206173 -0.009239 0.010000
v -0.202929 -0.007071 0.010000
v -0.200761 -0.003827 0.010000
v -0.200341 0.000000 0.007412
v -0.201076 0.003696 0.007412
v -0.203170 0.006830 0.007412
v -0.206304 0.008924 0.007412
v -0.210000 0.009659 0.007412
v -0.213696 0.008924 0.007412
v -0.216830 0.006830 0.007412
v -0.218924 0.003696 0.007412
v -0.219659 0.000000 0.007412
v -0.218924 -0.003696 0.007412
v -0.216830 -0.006830 0.007412
v -0.213696 -0.008924 0.007412
v -0.210000 -0.009659 0.007412
v -0.206304 -0.008924 0.007412
v -0.203170 -0.006830 0.007412
v -0.201076 -0.003696 0.007412
v -0.201340 0.000000 0.005000
v -0.201999 0.003314 0.005000
v -0.203876 0.006124 0.005000
v -0.206686 0.008001 0.005000
v -0.210000 0.008660 0.005000
v -0.213314 0.008001 0.005000
v -0.216124 0.006124 0.005000
v -0.218001 0.003314 0.005000
v -0.218660 0.000000 0.005000
v -0.218001 -0.003314 0.005000
v -0.216124 -0.006124 0.005000
v -0.213314 -0.008001 0.005000
v -0.210000 -0.008660 0.005000
v -0.206686 -0.008001 0.005000
v -0.203876 -0.006124 0.005000
v -0.201999 -0.003314 0.005000
v -0.202929 0.000000 0.002929
v -0.203467 0.002706 0.002929
v -0.205000 0.005000 0.002929
v -0.207294 0.006533 0.002929
v -0.210000 0.007071 0.002929
v -0.212706 0.006533 0.002929
v -0.215000 0.005000 0.002929
v -0.216533 0.002706 0.002929
v -0.217071 0.000000 0.002929
v -0.216533 -0.002706 0.002929
v -0.215000 -0.005000 0.002929
v -0.212706 -0.006533 0.002929
v -0.210000 -0.007071 0.002929
v -0.207294 -0.006533 0.002929
v -0.205000 -0.005000 0.002929
v -0.203467 -0.002706 0.002929
v -0.205000 0.000000 0.001340
v -0.205381 0.001913 0.001340
v -0.206464 0.003536 0.001340
v -0.208087 0.004619 0.001340
v -0.210000 0.005000 0.001340
v -0.211913 0.004619 0.001340
v -0.213536 0.003536 0.001340
v -0.214619 0.001913 0.001340
v -0.215000 0.000000 0.001340
v -0.214619 -0.001913 0.001340
v -0.213536 -0.003536 0.001340
v -0.211913 -0.004619 0.001340
v -0.210000 -0.005000 0.001340
v -0.208087 -0.004619 0.001340
v -0.206464 -0.003536 0.001340
v -0.205381 -0.001913 0.001340
v -0.207412 0.000000 0.000341
v -0.207609 0.000990 0.000341
v -0.208170 0.001830 0.000341
v -0.209010 0.002391 0.000341
v -0.210000 0.002588 0.000341
v -0.210990 0.002391 0.000341
v -0.211830 0.001830 0.000341
v -0.212391 0.000990 0.000341
v -0.212588 0.000000 0.000341
v -0.212391 -0.000990 0.000341
v -0.211830 -0.001830 0.000341
v -0.210990 -0.002391 0.000341
v -0.210000 -0.002588 0.000341
v -0.209010 -0.002391 0.000341
v -0.208170 -0.001830 0.000341
v -0.207609 -0.000990 0.000341
v -0.210000 0.000000 0.000000
v -0.210000 0.000000 0.000000
v -0.210000 0.000000 0.000000
v -0.210000 0.000000 0.000000
v -0.210000 0.000000 0.000000
v -0.210000 0.000000 0.000000
v -0.210000 0.000000 0.000000
v -0.210000 0.000000 0.000000
v -0.210000 0.000000 0.000000
v -0.210000 0.000000 0.000000
v -0.210000 0.000000 0.000000
v -0.210000 0.000000 0.000000
v -0.210000 0.000000 0.000000
v -0.210000 0.000000 0.000000
v -0.210000 0.000000 0.000000
v -0.210000 0.000000 0.000000
v 0.010000 0.155000 0.045301
v 0.010000 -0.155000 0.045299
v 0.009659 0.155000 0.047889
v 0.009659 -0.155000 0.047888
v 0.008660 0.155000 0.050301
v 0.008660 -0.155000 0.050299
v 0.007071 0.155000 0.052372
v 0.007071 -0.155000 0.052370
v 0.005000 0.155000 0.053961
v 0.005000 -0.155000 0.053960
v 0.002588 0.155000 0.054960
v 0.002588 -0.155000 0.054959
v 0.000000 0.155000 0.055301
v 0.000000 -0.155000 0.055299
v -0.002588 0.155000 0.054960
v -0.002588 -0.155000 0.054959
v -0.005000 0.155000 0.053961
v -0.005000 -0.155000 0.053960
v -0.007071 0.155000 0.052372
v -0.007071 -0.155000 0.052370
v -0.008660 0.155000 0.050301
v -0.008660 -0.155000 0.050299
v -0.009659 0.155000 0.047889
v -0.009659 -0.155000 0.047888
v -0.010000 0.155000 0.045301
v -0.010000 -0.155000 0.045299
v -0.009659 0.155000 0.042712
v -0.009659 -0.155000 0.042711
v -0.008660 0.155000 0.040301
v -0.008660 -0.155000 0.040299
v -0.007071 0.155000 0.038230
v -0.007071 -0.155000 0.038228
v -0.005000 0.155000 0.036640
v -0.005000 -0.155000 0.036639
v -0.002588 0.155000 0.035641
v -0.002588 -0.155000 0.035640
v 0.000000 0.155000 0.035301
v 0.000000 -0.155000 0.035299
v 0.002588 0.155000 0.035641
v 0.002588 -0.155000 0.035640
v 0.005000 0.155000 0.036640
v 0.005000 -0.155000 0.036639
v 0.007071 0.155000 0.038230
v 0.007071 -0.155000 0.038228
v 0.008660 0.155000 0.040301
v 0.008660 -0.155000 0.040299
v 0.009659 0.155000 0.042712
v 0.009659 -0.155000 0.042711
v 0.000000 0.155000 0.045301
v 0.000000 -0.155000 0.045299
f 1 3 4 2
f 3 5 6 4
f 5 7 8 6
f 7 9 10 8
f 9 11 12 10
f 11 13 14 12
f 13 15 16 14
f 15 17 18 16
f 17 19 20 18
f 19 21 22 20
f 21 23 24 22
f 23 25 26 24
f 25 27 28 26
f 27 29 30 28
f 29 31 32 30
f 31 33 34 32
f 33 35 36 34
f 35 37 38 36
f 37 39 40 38
f 39 41 42 40
f 41 43 44 42
f 43 45 46 44
f 45 47 48 46
f 47 49 50 48
f 49 51 52 50
f 51 53 54 52
f 53 55 56 54
f 55 57 58 56
f 57 59 60 58
f 59 61 62 60
f 61 63 64 62
f 63 1 2 64
f 65 3 1
f 65 5 3
f 65 7 5
f 65 9 7
f 65 11 9
f 65 13 11
f 65 15 13
f 65 17 15
f 65 19 17
f 65 21 19
f 65 23 21
f 65 25 23
f 65 27 25
f 65 29 27
f 65 31 29
f 65 33 31
f 65 35 33
f 65 37 35
f 65 39 37
f 65 41 39
f 65 43 41
f 65 45 43
f 65 47 45
f 65 49 47
f 65 51 49
f 65 53 51
f 65 55 53
f 65 57 55
f 65 59 57
f 65 61 59
f 65 63 61
f 65 1 63
f 66 2 4
f 66 4 6
f 66 6 8
f 66 8 10
f 66 10 12
f 66 12 14
f 66 14 16
f 66 16 18
f 66 18 20
f 66 20 22
f 66 22 24
f 66 24 26
f 66 26 28
f 66 28 30
f 66 30 32
f 66 32 34
f 66 34 36
f 66 36 38
f 66 38 40
f 66 40 42
f 66 42 44
f 66 44 46
f 66 46 48
f 66 48 50
f 66 50 52
f 66 52 54
f 66 54 56
f 66 56 58
f 66 58 60
f 66 60 62
f 66 62 64
f 66 64 2
f 67 68 70 69
f 69 70 72 71
f 71 72 74 73
f 73 74 76 75
f 75 76 78 77
f 77 78 80 79
f 79 80 82 81
f 81 82 84 83
f 83 84 86 85
f 85 86 88 87
f 87 88 90 89
f 89 90 92 91
f 91 92 94 93
f 93 94 96 95
f 95 96 98 97
f 97 98 100 99
f 99 100 102 101
f 101 102 104 103
f 103 104 106 105
f 105 106 108 107
f 107 108 110 109
f 109 110 112 111
f 111 112 114 113
f 113 114 116 115
f 115 116 118 117
f 117 118 120 119
f 119 120 122 121
f 121 122 124 123
f 123 124 126 125
f 125 126 128 127
f 70 74 72
f 78 76 74
f 84 82 80
f 80 78 74
f 70 68 74
f 68 130 128
f 128 126 124
f 124 122 120
f 120 118 116
f 116 114 112
f 112 110 108
f 108 106 104
f 104 102 100
f 100 98 96
f 96 94 92
f 92 90 88
f 88 86 84
f 68 80 74
f 88 84 80
f 96 92 88
f 104 100 96
f 112 108 104
f 120 116 112
f 128 124 120
f 68 128 80
f 96 88 80
f 112 104 96
f 128 120 112
f 128 96 80
f 128 112 96
f 68 67 129 130
f 127 128 130 129
f 67 127 129
f 123 125 127
f 119 121 123
f 115 117 119
f 111 113 115
f 107 109 111
f 103 105 107
f 99 101 103
f 95 97 99
f 91 93 95
f 87 89 91
f 83 85 87
f 79 81 83
f 75 77 79
f 71 73 75
f 67 69 71
f 67 123 127
f 111 115 119
f 67 119 123
f 67 71 75
f 79 83 87
f 67 75 79
f 67 111 119
f 103 107 111
f 95 99 103
f 87 91 95
f 67 79 87
f 67 103 111
f 87 95 103
f 67 87 103
f 131 132 134 133
f 133 134 136 135
f 135 136 138 137
f 137 138 140 139
f 139 140 142 141
f 141 142 144 143
f 143 144 146 145
f 145 146 148 147
f 147 148 150 149
f 149 150 152 151
f 151 152 154 153
f 153 154 156 155
f 155 156 158 157
f 157 158 160 159
f 159 160 162 161
f 161 162 164 163
f 163 164 166 165
f 165 166 168 167
f 167 168 170 169
f 169 170 172 171
f 171 172 174 173
f 173 174 176 175
f 175 176 178 177
f 177 178 180 179
f 179 180 182 181
f 181 182 184 183
f 183 184 186 185
f 185 186 188 187
f 187 188 190 189
f 189 190 192 191
f 134 138 136
f 142 140 138
f 148 146 144
f 144 142 138
f 134 132 138
f 132 194 192
f 192 190 188
f 188 186 184
f 184 182 180
f 180 178 176
f 176 174 172
f 172 170 168
f 168 166 164
f 164 162 160
f 160 158 156
f 156 154 152
f 152 150 148
f 132 144 138
f 152 148 144
f 160 156 152
f 168 164 160
f 176 172 168
f 184 180 176
f 192 188 184
f 132 192 144
f 160 152 144
f 176 168 160
f 192 184 176
f 192 160 144
f 192 176 160
f 132 131 193 194
f 191 192 194 193
f 131 191 193
f 187 189 191
f 183 185 187
f 179 181 183
f 175 177 179
f 171 173 175
f 167 169 171
f 163 165 167
f 159 161 163
f 155 157 159
f 151 153 155
f 147 149 151
f 143 145 147
f 139 141 143
f 135 137 139
f 131 133 135
f 131 187 191
f 175 179 183
f 131 183 187
f 131 135 139
f 143 147 151
f 131 139 143
f 131 175 183
f 167 171 175
f 159 163 167
f 151 155 159
f 131 143 151
f 131 167 175
f 151 159 167
f 131 151 167
f 195 197 198 196
f 197 199 200 198
f 199 201 202 200
f 201 203 204 202
f 203 205 206 204
f 205 207 208 206
f 207 209 210 208
f 209 211 212 210
f 211 213 214 212
f 213 215 216 214
f 215 217 218 216
f 217 219 220 218
f 219 221 222 220
f 221 223 224 222
f 223 225 226 224
f 225 227 228 226
f 227 229 230 228
f 229 231 232 230
f 231 233 234 232
f 233 235 236 234
f 235 237 238 236
f 237 239 240 238
f 239 241 242 240
f 241 195 196 242
f 243 197 195
f 243 199 197
f 243 201 199
f 243 203 201
f 243 205 203
f 243 207 205
f 243 209 207
f 243 211 209
f 243 213 211
f 243 215 213
f 243 217 215
f 243 219 217
f 243 221 219
f 243 223 221
f 243 225 223
f 243 227 225
f 243 229 227
f 243 231 229
f 243 233 231
f 243 235 233
f 243 237 235
f 243 239 237
f 243 241 239
f 243 195 241
f 244 196 198
f 244 198 200
f 244 200 202
f 244 202 204
f 244 204 206
f 244 206 208
f 244 208 210
f 244 210 212
f 244 212 214
f 244 214 216
f 244 216 218
f 244 218 220
f 244 220 222
f 244 222 224
f 244 224 226
f 244 226 228
f 244 228 230
f 244 230 232
f 244 232 234
f 244 234 236
f 244 236 238
f 244 238 240
f 244 240 242
f 244 242 196
f 245 246 247 248
f 249 252 251 250
f 245 249 250 246
f 247 251 252 248
f 245 248 252 249
f 246 250 251 247
f 253 255 256 254
f 255 257 258 256
f 257 259 260 258
f 259 261 262 260
f 261 263 264 262
f 263 265 266 264
f 265 267 268 266
f 267 253 254 268
f 269 255 253
f 269 257 255
f 269 259 257
f 269 261 259
f 269 263 261
f 269 265 263
f 269 267 265
f 269 253 267
f 270 254 256
f 270 256 258
f 270 258 260
f 270 260 262
f 270 262 264
f 270 264 266
f 270 266 268
f 270 268 254
f 271 273 274 272
f 273 275 276 274
f 275 277 278 276
f 277 279 280 278
f 279 281 282 280
f 281 283 284 282
f 283 285 286 284
f 285 287 288 286
f 287 289 290 288
f 289 291 292 290
f 291 293 294 292
f 293 295 296 294
f 295 297 298 296
f 297 299 300 298
f 299 301 302 300
f 301 303 304 302
f 303 305 306 304
f 305 307 308 306
f 307 309 310 308
f 309 311 312 310
f 311 313 314 312
f 313 315 316 314
f 315 317 318 316
f 317 271 272 318
f 319 273 271
f 319 275 273
f 319 277 275
f 319 279 277
f 319 281 279
f 319 283 281
f 319 285 283
f 319 287 285
f 319 289 287
f 319 291 289
f 319 293 291
f 319 295 293
f 319 297 295
f 319 299 297
f 319 301 299
f 319 303 301
f 319 305 303
f 319 307 305
f 319 309 307
f 319 311 309
f 319 313 311
f 319 315 313
f 319 317 315
f 319 271 317
f 320 272 274
f 320 274 276
f 320 276 278
f 320 278 280
f 320 280 282
f 320 282 284
f 320 284 286
f 320 286 288
f 320 288 290
f 320 290 292
f 320 292 294
f 320 294 296
f 320 296 298
f 320 298 300
f 320 300 302
f 320 302 304
f 320 304 306
f 320 306 308
f 320 308 310
f 320 310 312
f 320 312 314
f 320 314 316
f 320 316 318
f 320 318 272
f 321 322 338 337
f 322 323 339 338
f 323 324 340 339
f 324 325 341 340
f 325 326 342 341
f 326 327 343 342
f 327 328 344 343
f 328 329 345 344
f 329 330 346 345
f 330 331 347 346
f 331 332 348 347
f 332 333 349 348
f 333 334 350 349
f 334 335 351 350
f 335 336 352 351
f 336 321 337 352
f 337 338 354 353
f 338 339 355 354
f 339 340 356 355
f 340 341 357 356
f 341 342 358 357
f 342 343 359 358
f 343 344 360 359
f 344 345 361 360
f 345 346 362 361
f 346 347 363 362
f 347 348 364 363
f 348 349 365 364
f 349 350 366 365
f 350 351 367 366
f 351 352 368 367
f 352 337 353 368
f 353 354 370 369
f 354 355 371 370
f 355 356 372 371
f 356 357 373 372
f 357 358 374 373
f 358 359 375 374
f 359 360 376 375
f 360 361 377 376
f 361 362 378 377
f 362 363 379 378
f 363 364 380 379
f 364 365 381 380
f 365 366 382 381
f 366 367 383 382
f 367 368 384 383
f 368 353 369 384
f 369 370 386 385
f 370 371 387 386
f 371 372 388 387
f 372 373 389 388
f 373 374 390 389
f 374 375 391 390
f 375 376 392 391
f 376 377 393 392
f 377 378 394 393
f 378 379 395 394
f 379 380 396 395
f 380 381 397 396
f 381 382 398 397
f 382 383 399 398
f 383 384 400 399
f 384 369 385 400
f 385 386 402 401
f 386 387 403 402
f 387 388 404 403
f 388 389 405 404
f 389 390 406 405
f 390 391 407 406
f 391 392 408 407
f 392 393 409 408
f 393 394 410 409
f 394 395 411 410
f 395 396 412 411
f 396 397 413 412
f 397 398 414 413
f 398 399 415 414
f 399 400 416 415
f 400 385 401 416
f 401 402 418 417
f 402 403 419 418
f 403 404 420 419
f 404 405 421 420
f 405 406 422 421
f 406 407 423 422
f 407 408 424 423
f 408 409 425 424
f 409 410 426 425
f 410 411 427 426
f 411 412 428 427
f 412 413 429 428
f 413 414 430 429
f 414 415 431 430
f 415 416 432 431
f 416 401 417 432
f 417 418 434 433
f 418 419 435 434
f 419 420 436 435
f 420 421 437 436
f 421 422 438 437
f 422 423 439 438
f 423 424 440 439
f 424 425 441 440
f 425 426 442 441
f 426 427 443 442
f 427 428 444 443
f 428 429 445 444
f 429 430 446 445
f 430 431 447 446
f 431 432 448 447
f 432 417 433 448
f 433 434 450 449
f 434 435 451 450
f 435 436 452 451
f 436 437 453 452
f 437 438 454 453
f 438 439 455 454
f 439 440 456 455
f 440 441 457 456
f 441 442 458 457
f 442 443 459 458
f 443 444 460 459
f 444 445 461 460
f 445 446 462 461
f 446 447 463 462
f 447 448 464 463
f 448 433 449 464
f 449 450 466 465
f 450 451 467 466
f 451 452 468 467
f 452 453 469 468
f 453 454 470 469
f 454 455 471 470
f 455 456 472 471
f 456 457 473 472
f 457 458 474 473
f 458 459 475 474
f 459 460 476 475
f 460 461 477 476
f 461 462 478 477
f 462 463 479 478
f 463 464 480 479
f 464 449 465 480
f 465 466 482 481
f 466 467 483 482
f 467 468 484 483
f 468 469 485 484
f 469 470 486 485
f 470 471 487 486
f 471 472 488 487
f 472 473 489 488
f 473 474 490 489
f 474 475 491 490
f 475 476 492 491
f 476 477 493 492
f 477 478 494 493
f 478 479 495 494
f 479 480 496 495
f 480 465 481 496
f 481 482 498 497
f 482 483 499 498
f 483 484 500 499
f 484 485 501 500
f 485 486 502 501
f 486 487 503 502
f 487 488 504 503
f 488 489 505 504
f 489 490 506 505
f 490 491 507 506
f 491 492 508 507
f 492 493 509 508
f 493 494 510 509
f 494 495 511 510
f 495 496 512 511
f 496 481 497 512
f 497 498 514 513
f 498 499 515 514
f 499 500 516 515
f 500 501 517 516
f 501 502 518 517
f 502 503 519 518
f 503 504 520 519
f 504 505 521 520
f 505 506 522 521
f 506 507 523 522
f 507 508 524 523
f 508 509 525 524
f 509 510 526 525
f 510 511 527 526
f 511 512 528 527
f 512 497 513 528
f 529 531 532 530
f 531 533 534 532
f 533 535 536 534
f 535 537 538 536
f 537 539 540 538
f 539 541 542 540
f 541 543 544 542
f 543 545 546 544
f 545 547 548 546
f 547 549 550 548
f 549 551 552 550
f 551 553 554 552
f 553 555 556 554
f 555 557 558 556
f 557 559 560 558
f 559 561 562 560
f 561 563 564 562
f 563 565 566 564
f 565 567 568 566
f 567 569 570 568
f 569 571 572 570
f 571 573 574 572
f 573 575 576 574
f 575 529 530 576
f 577 531 529
f 577 533 531
f 577 535 533
f 577 537 535
f 577 539 537
f 577 541 539
f 577 543 541
f 577 545 543
f 577 547 545
f 577 549 547
f 577 551 549
f 577 553 551
f 577 555 553
f 577 557 555
f 577 559 557
f 577 561 559
f 577 563 561
f 577 565 563
f 577 567 565
f 577 569 567
f 577 571 569
f 577 573 571
f 577 575 573
f 577 529 575
f 578 530 532
f 578 532 534
f 578 534 536
f 578 536 538
f 578 538 540
f 578 540 542
f 578 542 544
f 578 544 546
f 578 546 548
f 578 548 550
f 578 550 552
f 578 552 554
f 578 554 556
f 578 556 558
f 578 558 560
f 578 560 562
f 578 562 564
f 578 564 566
f 578 566 568
f 578 568 570
f 578 570 572
f 578 572 574
f 578 574 576
f 578 576 530
