# Exported from Webots PROTO
v 0.000000 0.045000 0.004500
v 0.000000 0.045000 -0.004500
v -0.008779 0.044135 0.004500
v -0.008779 0.044135 -0.004500
v -0.017221 0.041575 0.004500
v -0.017221 0.041575 -0.004500
v -0.025001 0.037416 0.004500
v -0.025001 0.037416 -0.004500
v -0.031820 0.031820 0.004500
v -0.031820 0.031820 -0.004500
v -0.037416 0.025001 0.004500
v -0.037416 0.025001 -0.004500
v -0.041575 0.017221 0.004500
v -0.041575 0.017221 -0.004500
v -0.044135 0.008779 0.004500
v -0.044135 0.008779 -0.004500
v -0.045000 0.000000 0.004500
v -0.045000 0.000000 -0.004500
v -0.044135 -0.008779 0.004500
v -0.044135 -0.008779 -0.004500
v -0.041575 -0.017221 0.004500
v -0.041575 -0.017221 -0.004500
v -0.037416 -0.025001 0.004500
v -0.037416 -0.025001 -0.004500
v -0.031820 -0.031820 0.004500
v -0.031820 -0.031820 -0.004500
v -0.025001 -0.037416 0.004500
v -0.025001 -0.037416 -0.004500
v -0.017221 -0.041575 0.004500
v -0.017221 -0.041575 -0.004500
v -0.008779 -0.044135 0.004500
v -0.008779 -0.044135 -0.004500
v 0.000000 -0.045000 0.004500
v 0.000000 -0.045000 -0.004500
v 0.008779 -0.044135 0.004500
v 0.008779 -0.044135 -0.004500
v 0.017221 -0.041575 0.004500
v 0.017221 -0.041575 -0.004500
v 0.025001 -0.037416 0.004500
v 0.025001 -0.037416 -0.004500
v 0.031820 -0.031820 0.004500
v 0.031820 -0.031820 -0.004500
v 0.037416 -0.025001 0.004500
v 0.037416 -0.025001 -0.004500
v 0.041575 -0.017221 0.004500
v 0.041575 -0.017221 -0.004500
v 0.044135 -0.008779 0.004500
v 0.044135 -0.008779 -0.004500
v 0.045000 0.000000 0.004500
v 0.045000 0.000000 -0.004500
v 0.044135 0.008779 0.004500
v 0.044135 0.008779 -0.004500
v 0.041575 0.017221 0.004500
v 0.041575 0.017221 -0.004500
v 0.037416 0.025001 0.004500
v 0.037416 0.025001 -0.004500
v 0.031820 0.031820 0.004500
v 0.031820 0.031820 -0.004500
v 0.025001 0.037416 0.004500
v 0.025001 0.037416 -0.004500
v 0.017221 0.041575 0.004500
v 0.017221 0.041575 -0.004500
v 0.008779 0.044135 0.004500
v 0.008779 0.044135 -0.004500
v 0.000000 0.040500 0.004050
v 0.000000 0.040500 -0.004050
v -0.007901 0.039722 0.004050
v -0.007901 0.039722 -0.004050
v -0.015499 0.037417 0.004050
v -0.015499 0.037417 -0.004050
v -0.022501 0.033674 0.004050
v -0.022501 0.033674 -0.004050
v -0.028638 0.028638 0.004050
v -0.028638 0.028638 -0.004050
v -0.033674 0.022501 0.004050
v -0.033675 0.022501 -0.004050
v -0.037417 0.015499 0.004050
v -0.037417 0.015499 -0.004050
v -0.039722 0.007901 0.004050
v -0.039722 0.007901 -0.004050
v -0.040500 0.000000 0.004050
v -0.040500 0.000000 -0.004050
v -0.039722 -0.007901 0.004050
v -0.039722 -0.007901 -0.004050
v -0.037417 -0.015499 0.004050
v -0.037417 -0.015499 -0.004050
v -0.033674 -0.022501 0.004050
v -0.033675 -0.022501 -0.004050
v -0.028638 -0.028638 0.004050
v -0.028638 -0.028638 -0.004050
v -0.022501 -0.033674 0.004050
v -0.022501 -0.033674 -0.004050
v -0.015499 -0.037417 0.004050
v -0.015499 -0.037417 -0.004050
v -0.007901 -0.039722 0.004050
v -0.007901 -0.039722 -0.004050
v 0.000000 -0.040500 0.004050
v 0.000000 -0.040500 -0.004050
v 0.007901 -0.039722 0.004050
v 0.007901 -0.039722 -0.004050
v 0.015499 -0.037417 0.004050
v 0.015499 -0.037417 -0.004050
v 0.022501 -0.033674 0.004050
v 0.022501 -0.033674 -0.004050
v 0.028638 -0.028638 0.004050
v 0.028638 -0.028638 -0.004050
v 0.033675 -0.022501 0.004050
v 0.033674 -0.022501 -0.004050
v 0.037417 -0.015499 0.004050
v 0.037417 -0.015499 -0.004050
v 0.039722 -0.007901 0.004050
v 0.039722 -0.007901 -0.004050
v 0.040500 0.000000 0.004050
v 0.040500 0.000000 -0.004050
v 0.039722 0.007901 0.004050
v 0.039722 0.007901 -0.004050
v 0.037417 0.015499 0.004050
v 0.037417 0.015499 -0.004050
v 0.033675 0.022501 0.004050
v 0.033674 0.022501 -0.004050
v 0.028638 0.028638 0.004050
v 0.028638 0.028638 -0.004050
v 0.022501 0.033675 0.004050
v 0.022501 0.033675 -0.004050
v 0.015499 0.037417 0.004050
v 0.015499 0.037417 -0.004050
v 0.007901 0.039722 0.004050
v 0.007901 0.039722 -0.004050
v 0.000000 0.040000 0.002500
v 0.000000 0.040000 -0.002500
v -0.007804 0.039231 0.002500
v -0.007804 0.039231 -0.002500
v -0.015307 0.036955 0.002500
v -0.015307 0.036955 -0.002500
v -0.022223 0.033259 0.002500
v -0.022223 0.033259 -0.002500
v -0.028284 0.028284 0.002500
v -0.028284 0.028284 -0.002500
v -0.033259 0.022223 0.002500
v -0.033259 0.022223 -0.002500
v -0.036955 0.015307 0.002500
v -0.036955 0.015307 -0.002500
v -0.039231 0.007804 0.002500
v -0.039231 0.007804 -0.002500
v -0.040000 0.000000 0.002500
v -0.040000 0.000000 -0.002500
v -0.039231 -0.007804 0.002500
v -0.039231 -0.007804 -0.002500
v -0.036955 -0.015307 0.002500
v -0.036955 -0.015307 -0.002500
v -0.033259 -0.022223 0.002500
v -0.033259 -0.022223 -0.002500
v -0.028284 -0.028284 0.002500
v -0.028284 -0.028284 -0.002500
v -0.022223 -0.033259 0.002500
v -0.022223 -0.033259 -0.002500
v -0.015307 -0.036955 0.002500
v -0.015307 -0.036955 -0.002500
v -0.007804 -0.039231 0.002500
v -0.007804 -0.039231 -0.002500
v 0.000000 -0.040000 0.002500
v 0.000000 -0.040000 -0.002500
v 0.007804 -0.039231 0.002500
v 0.007804 -0.039231 -0.002500
v 0.015307 -0.036955 0.002500
v 0.015307 -0.036955 -0.002500
v 0.022223 -0.033259 0.002500
v 0.022223 -0.033259 -0.002500
v 0.028284 -0.028284 0.002500
v 0.028284 -0.028284 -0.002500
v 0.033259 -0.022223 0.002500
v 0.033259 -0.022223 -0.002500
v 0.036955 -0.015307 0.002500
v 0.036955 -0.015307 -0.002500
v 0.039231 -0.007804 0.002500
v 0.039231 -0.007804 -0.002500
v 0.040000 0.000000 0.002500
v 0.040000 0.000000 -0.002500
v 0.039231 0.007804 0.002500
v 0.039231 0.007804 -0.002500
v 0.036955 0.015307 0.002500
v 0.036955 0.015307 -0.002500
v 0.033259 0.022223 0.002500
v 0.033259 0.022223 -0.002500
v 0.028284 0.028284 0.002500
v 0.028284 0.028284 -0.002500
v 0.022223 0.033259 0.002500
v 0.022223 0.033259 -0.002500
v 0.015307 0.036955 0.002500
v 0.015307 0.036955 -0.002500
v 0.007804 0.039231 0.002500
v 0.007804 0.039231 -0.002500
v 0.000000 0.010000 0.000625
v 0.000000 0.010000 -0.000625
v -0.001951 0.009808 0.000625
v -0.001951 0.009808 -0.000625
v -0.003827 0.009239 0.000625
v -0.003827 0.009239 -0.000625
v -0.005556 0.008315 0.000625
v -0.005556 0.008315 -0.000625
v -0.007071 0.007071 0.000625
v -0.007071 0.007071 -0.000625
v -0.008315 0.005556 0.000625
v -0.008315 0.005556 -0.000625
v -0.009239 0.003827 0.000625
v -0.009239 0.003827 -0.000625
v -0.009808 0.001951 0.000625
v -0.009808 0.001951 -0.000625
v -0.010000 0.000000 0.000625
v -0.010000 0.000000 -0.000625
v -0.009808 -0.001951 0.000625
v -0.009808 -0.001951 -0.000625
v -0.009239 -0.003827 0.000625
v -0.009239 -0.003827 -0.000625
v -0.008315 -0.005556 0.000625
v -0.008315 -0.005556 -0.000625
v -0.007071 -0.007071 0.000625
v -0.007071 -0.007071 -0.000625
v -0.005556 -0.008315 0.000625
v -0.005556 -0.008315 -0.000625
v -0.003827 -0.009239 0.000625
v -0.003827 -0.009239 -0.000625
v -0.001951 -0.009808 0.000625
v -0.001951 -0.009808 -0.000625
v 0.000000 -0.010000 0.000625
v 0.000000 -0.010000 -0.000625
v 0.001951 -0.009808 0.000625
v 0.001951 -0.009808 -0.000625
v 0.003827 -0.009239 0.000625
v 0.003827 -0.009239 -0.000625
v 0.005556 -0.008315 0.000625
v 0.005556 -0.008315 -0.000625
v 0.007071 -0.007071 0.000625
v 0.007071 -0.007071 -0.000625
v 0.008315 -0.005556 0.000625
v 0.008315 -0.005556 -0.000625
v 0.009239 -0.003827 0.000625
v 0.009239 -0.003827 -0.000625
v 0.009808 -0.001951 0.000625
v 0.009808 -0.001951 -0.000625
v 0.010000 0.000000 0.000625
v 0.010000 0.000000 -0.000625
v 0.009808 0.001951 0.000625
v 0.009808 0.001951 -0.000625
v 0.009239 0.003827 0.000625
v 0.009239 0.003827 -0.000625
v 0.008315 0.005556 0.000625
v 0.008315 0.005556 -0.000625
v 0.007071 0.007071 0.000625
v 0.007071 0.007071 -0.000625
v 0.005556 0.008315 0.000625
v 0.005556 0.008315 -0.000625
v 0.003827 0.009239 0.000625
v 0.003827 0.009239 -0.000625
v 0.001951 0.009808 0.000625
v 0.001951 0.009808 -0.000625
v 0.000000 0.010000 0.000625
v 0.000000 0.010000 -0.000625
v -0.001951 0.009808 0.000625
v -0.001951 0.009808 -0.000625
v -0.003827 0.009239 0.000625
v -0.003827 0.009239 -0.000625
v -0.005556 0.008315 0.000625
v -0.005556 0.008315 -0.000625
v -0.007071 0.007071 0.000625
v -0.007071 0.007071 -0.000625
v -0.008315 0.005556 0.000625
v -0.008315 0.005556 -0.000625
v -0.009239 0.003827 0.000625
v -0.009239 0.003827 -0.000625
v -0.009808 0.001951 0.000625
v -0.009808 0.001951 -0.000625
v -0.010000 0.000000 0.000625
v -0.010000 0.000000 -0.000625
v -0.009808 -0.001951 0.000625
v -0.009808 -0.001951 -0.000625
v -0.009239 -0.003827 0.000625
v -0.009239 -0.003827 -0.000625
v -0.008315 -0.005556 0.000625
v -0.008315 -0.005556 -0.000625
v -0.007071 -0.007071 0.000625
v -0.007071 -0.007071 -0.000625
v -0.005556 -0.008315 0.000625
v -0.005556 -0.008315 -0.000625
v -0.003827 -0.009239 0.000625
v -0.003827 -0.009239 -0.000625
v -0.001951 -0.009808 0.000625
v -0.001951 -0.009808 -0.000625
v 0.000000 -0.010000 0.000625
v 0.000000 -0.010000 -0.000625
v 0.001951 -0.009808 0.000625
v 0.001951 -0.009808 -0.000625
v 0.003827 -0.009239 0.000625
v 0.003827 -0.009239 -0.000625
v 0.005556 -0.008315 0.000625
v 0.005556 -0.008315 -0.000625
v 0.007071 -0.007071 0.000625
v 0.007071 -0.007071 -0.000625
v 0.008315 -0.005556 0.000625
v 0.008315 -0.005556 -0.000625
v 0.009239 -0.003827 0.000625
v 0.009239 -0.003827 -0.000625
v 0.009808 -0.001951 0.000625
v 0.009808 -0.001951 -0.000625
v 0.010000 0.000000 0.000625
v 0.010000 0.000000 -0.000625
v 0.009808 0.001951 0.000625
v 0.009808 0.001951 -0.000625
v 0.009239 0.003827 0.000625
v 0.009239 0.003827 -0.000625
v 0.008315 0.005556 0.000625
v 0.008315 0.005556 -0.000625
v 0.007071 0.007071 0.000625
v 0.007071 0.007071 -0.000625
v 0.005556 0.008315 0.000625
v 0.005556 0.008315 -0.000625
v 0.003827 0.009239 0.000625
v 0.003827 0.009239 -0.000625
v 0.001951 0.009808 0.000625
v 0.001951 0.009808 -0.000625
v 0.000000 0.010000 0.000625
v 0.000000 0.010000 -0.000625
v -0.001951 0.009808 0.000625
v -0.001951 0.009808 -0.000625
v -0.003827 0.009239 0.000625
v -0.003827 0.009239 -0.000625
v -0.005556 0.008315 0.000625
v -0.005556 0.008315 -0.000625
v -0.007071 0.007071 0.000625
v -0.007071 0.007071 -0.000625
v -0.008315 0.005556 0.000625
v -0.008315 0.005556 -0.000625
v -0.009239 0.003827 0.000625
v -0.009239 0.003827 -0.000625
v -0.009808 0.001951 0.000625
v -0.009808 0.001951 -0.000625
v -0.010000 0.000000 0.000625
v -0.010000 0.000000 -0.000625
v -0.009808 -0.001951 0.000625
v -0.009808 -0.001951 -0.000625
v -0.009239 -0.003827 0.000625
v -0.009239 -0.003827 -0.000625
v -0.008315 -0.005556 0.000625
v -0.008315 -0.005556 -0.000625
v -0.007071 -0.007071 0.000625
v -0.007071 -0.007071 -0.000625
v -0.005556 -0.008315 0.000625
v -0.005556 -0.008315 -0.000625
v -0.003827 -0.009239 0.000625
v -0.003827 -0.009239 -0.000625
v -0.001951 -0.009808 0.000625
v -0.001951 -0.009808 -0.000625
v 0.000000 -0.010000 0.000625
v 0.000000 -0.010000 -0.000625
v 0.001951 -0.009808 0.000625
v 0.001951 -0.009808 -0.000625
v 0.003827 -0.009239 0.000625
v 0.003827 -0.009239 -0.000625
v 0.005556 -0.008315 0.000625
v 0.005556 -0.008315 -0.000625
v 0.007071 -0.007071 0.000625
v 0.007071 -0.007071 -0.000625
v 0.008315 -0.005556 0.000625
v 0.008315 -0.005556 -0.000625
v 0.009239 -0.003827 0.000625
v 0.009239 -0.003827 -0.000625
v 0.009808 -0.001951 0.000625
v 0.009808 -0.001951 -0.000625
v 0.010000 0.000000 0.000625
v 0.010000 0.000000 -0.000625
v 0.009808 0.001951 0.000625
v 0.009808 0.001951 -0.000625
v 0.009239 0.003827 0.000625
v 0.009239 0.003827 -0.000625
v 0.008315 0.005556 0.000625
v 0.008315 0.005556 -0.000625
v 0.007071 0.007071 0.000625
v 0.007071 0.007071 -0.000625
v 0.005556 0.008315 0.000625
v 0.005556 0.008315 -0.000625
v 0.003827 0.009239 0.000625
v 0.003827 0.009239 -0.000625
v 0.001951 0.009808 0.000625
v 0.001951 0.009808 -0.000625
v 0.000000 0.009900 0.000000
v -0.001931 0.009710 0.000000
v -0.003789 0.009146 0.000000
v -0.005500 0.008232 0.000000
v -0.007000 0.007000 0.000000
v -0.008232 0.005500 0.000000
v -0.009146 0.003789 0.000000
v -0.009710 0.001931 0.000000
v -0.009900 0.000000 0.000000
v -0.009710 -0.001931 0.000000
v -0.009146 -0.003789 0.000000
v -0.008232 -0.005500 0.000000
v -0.007000 -0.007000 0.000000
v -0.005500 -0.008232 0.000000
v -0.003789 -0.009146 0.000000
v -0.001931 -0.009710 0.000000
v 0.000000 -0.009900 0.000000
v 0.001931 -0.009710 0.000000
v 0.003789 -0.009146 0.000000
v 0.005500 -0.008232 0.000000
v 0.007000 -0.007000 0.000000
v 0.008232 -0.005500 0.000000
v 0.009146 -0.003789 0.000000
v 0.009710 -0.001931 0.000000
v 0.009900 0.000000 0.000000
v 0.009710 0.001931 0.000000
v 0.009146 0.003789 0.000000
v 0.008232 0.005500 0.000000
v 0.007000 0.007000 0.000000
v 0.005500 0.008232 0.000000
v 0.003789 0.009146 0.000000
v 0.001931 0.009710 0.000000
v 0.000000 0.009900 0.000000
v -0.001931 0.009710 0.000000
v -0.003789 0.009146 0.000000
v -0.005500 0.008232 0.000000
v -0.007000 0.007000 0.000000
v -0.008232 0.005500 0.000000
v -0.009146 0.003789 0.000000
v -0.009710 0.001931 0.000000
v -0.009900 0.000000 0.000000
v -0.009710 -0.001931 0.000000
v -0.009146 -0.003789 0.000000
v -0.008232 -0.005500 0.000000
v -0.007000 -0.007000 0.000000
v -0.005500 -0.008232 0.000000
v -0.003789 -0.009146 0.000000
v -0.001931 -0.009710 0.000000
v 0.000000 -0.009900 0.000000
v 0.001931 -0.009710 0.000000
v 0.003789 -0.009146 0.000000
v 0.005500 -0.008232 0.000000
v 0.007000 -0.007000 0.000000
v 0.008232 -0.005500 0.000000
v 0.009146 -0.003789 0.000000
v 0.009710 -0.001931 0.000000
v 0.009900 0.000000 0.000000
v 0.009710 0.001931 0.000000
v 0.009146 0.003789 0.000000
v 0.008232 0.005500 0.000000
v 0.007000 0.007000 0.000000
v 0.005500 0.008232 0.000000
v 0.003789 0.009146 0.000000
v 0.001931 0.009710 0.000000
v 0.000000 0.009900 -0.002500
v -0.001931 0.009710 -0.002500
v -0.003789 0.009146 -0.002500
v -0.005500 0.008232 -0.002500
v -0.007000 0.007000 -0.002500
v -0.008232 0.005500 -0.002500
v -0.009146 0.003789 -0.002500
v -0.009710 0.001931 -0.002500
v -0.009900 0.000000 -0.002500
v -0.009710 -0.001931 -0.002500
v -0.009146 -0.003789 -0.002500
v -0.008232 -0.005500 -0.002500
v -0.007000 -0.007000 -0.002500
v -0.005500 -0.008232 -0.002500
v -0.003789 -0.009146 -0.002500
v -0.001931 -0.009710 -0.002500
v 0.000000 -0.009900 -0.002500
v 0.001931 -0.009710 -0.002500
v 0.003789 -0.009146 -0.002500
v 0.005500 -0.008232 -0.002500
v 0.007000 -0.007000 -0.002500
v 0.008232 -0.005500 -0.002500
v 0.009146 -0.003789 -0.002500
v 0.009710 -0.001931 -0.002500
v 0.009900 0.000000 -0.002500
v 0.009710 0.001931 -0.002500
v 0.009146 0.003789 -0.002500
v 0.008232 0.005500 -0.002500
v 0.007000 0.007000 -0.002500
v 0.005500 0.008232 -0.002500
v 0.003789 0.009146 -0.002500
v 0.001931 0.009710 -0.002500
v 0.000000 0.001485 -0.002500
v -0.000290 0.001456 -0.002500
v -0.000568 0.001372 -0.002500
v -0.000825 0.001235 -0.002500
v -0.001050 0.001050 -0.002500
v -0.001235 0.000825 -0.002500
v -0.001372 0.000568 -0.002500
v -0.001456 0.000290 -0.002500
v -0.001485 0.000000 -0.002500
v -0.001456 -0.000290 -0.002500
v -0.001372 -0.000568 -0.002500
v -0.001235 -0.000825 -0.002500
v -0.001050 -0.001050 -0.002500
v -0.000825 -0.001235 -0.002500
v -0.000568 -0.001372 -0.002500
v -0.000290 -0.001456 -0.002500
v 0.000000 -0.001485 -0.002500
v 0.000290 -0.001456 -0.002500
v 0.000568 -0.001372 -0.002500
v 0.000825 -0.001235 -0.002500
v 0.001050 -0.001050 -0.002500
v 0.001235 -0.000825 -0.002500
v 0.001372 -0.000568 -0.002500
v 0.001456 -0.000290 -0.002500
v 0.001485 0.000000 -0.002500
v 0.001456 0.000290 -0.002500
v 0.001372 0.000568 -0.002500
v 0.001235 0.000825 -0.002500
v 0.001050 0.001050 -0.002500
v 0.000825 0.001235 -0.002500
v 0.000568 0.001372 -0.002500
v 0.000290 0.001456 -0.002500
f 1 2 4 3
f 3 4 6 5
f 5 6 8 7
f 7 8 10 9
f 9 10 12 11
f 11 12 14 13
f 13 14 16 15
f 15 16 18 17
f 17 18 20 19
f 19 20 22 21
f 21 22 24 23
f 23 24 26 25
f 25 26 28 27
f 27 28 30 29
f 29 30 32 31
f 31 32 34 33
f 33 34 36 35
f 35 36 38 37
f 37 38 40 39
f 39 40 42 41
f 41 42 44 43
f 43 44 46 45
f 45 46 48 47
f 47 48 50 49
f 49 50 52 51
f 51 52 54 53
f 53 54 56 55
f 55 56 58 57
f 57 58 60 59
f 59 60 62 61
f 61 62 64 63
f 63 64 2 1
f 65 67 68 66
f 67 69 70 68
f 69 71 72 70
f 71 73 74 72
f 73 75 76 74
f 75 77 78 76
f 77 79 80 78
f 79 81 82 80
f 81 83 84 82
f 83 85 86 84
f 85 87 88 86
f 87 89 90 88
f 89 91 92 90
f 91 93 94 92
f 93 95 96 94
f 95 97 98 96
f 97 99 100 98
f 99 101 102 100
f 101 103 104 102
f 103 105 106 104
f 105 107 108 106
f 107 109 110 108
f 109 111 112 110
f 111 113 114 112
f 113 115 116 114
f 115 117 118 116
f 117 119 120 118
f 119 121 122 120
f 121 123 124 122
f 123 125 126 124
f 125 127 128 126
f 127 65 66 128
f 13 77 75 11
f 36 100 102 38
f 46 110 112 48
f 23 87 85 21
f 56 120 122 58
f 33 97 95 31
f 43 107 105 41
f 2 66 68 4
f 53 117 115 51
f 63 127 125 61
f 12 76 78 14
f 22 86 88 24
f 9 73 71 7
f 32 96 98 34
f 19 83 81 17
f 42 106 108 44
f 29 93 91 27
f 52 116 118 54
f 62 126 128 64
f 39 103 101 37
f 49 113 111 47
f 59 123 121 57
f 8 72 74 10
f 18 82 84 20
f 28 92 94 30
f 5 69 67 3
f 15 79 77 13
f 38 102 104 40
f 25 89 87 23
f 48 112 114 50
f 58 122 124 60
f 35 99 97 33
f 45 109 107 43
f 55 119 117 53
f 4 68 70 6
f 1 65 127 63
f 14 78 80 16
f 24 88 90 26
f 11 75 73 9
f 34 98 100 36
f 21 85 83 19
f 44 108 110 46
f 54 118 120 56
f 31 95 93 29
f 64 128 66 2
f 41 105 103 39
f 51 115 113 49
f 61 125 123 59
f 10 74 76 12
f 20 84 86 22
f 7 71 69 5
f 30 94 96 32
f 17 81 79 15
f 40 104 106 42
f 3 67 65 1
f 27 91 89 25
f 50 114 116 52
f 60 124 126 62
f 37 101 99 35
f 47 111 109 45
f 57 121 119 55
f 6 70 72 8
f 16 80 82 18
f 26 90 92 28
f 129 130 132 131
f 131 132 134 133
f 133 134 136 135
f 135 136 138 137
f 137 138 140 139
f 139 140 142 141
f 141 142 144 143
f 143 144 146 145
f 145 146 148 147
f 147 148 150 149
f 149 150 152 151
f 151 152 154 153
f 153 154 156 155
f 155 156 158 157
f 157 158 160 159
f 159 160 162 161
f 161 162 164 163
f 163 164 166 165
f 165 166 168 167
f 167 168 170 169
f 169 170 172 171
f 171 172 174 173
f 173 174 176 175
f 175 176 178 177
f 177 178 180 179
f 179 180 182 181
f 181 182 184 183
f 183 184 186 185
f 185 186 188 187
f 187 188 190 189
f 189 190 192 191
f 191 192 130 129
f 225 289 287 223
f 248 312 314 250
f 238 302 304 240
f 215 279 277 213
f 228 292 294 230
f 205 269 267 203
f 218 282 284 220
f 208 272 274 210
f 198 262 264 200
f 249 313 311 247
f 239 303 301 237
f 229 293 291 227
f 252 316 318 254
f 219 283 281 217
f 195 259 257 193
f 242 306 308 244
f 232 296 298 234
f 209 273 271 207
f 222 286 288 224
f 199 263 261 197
f 212 276 278 214
f 202 266 268 204
f 253 317 315 251
f 243 307 305 241
f 233 297 295 231
f 256 320 258 194
f 223 287 285 221
f 246 310 312 248
f 236 300 302 238
f 213 277 275 211
f 203 267 265 201
f 226 290 292 228
f 152 216 218 154
f 139 203 201 137
f 162 226 228 164
f 149 213 211 147
f 172 236 238 174
f 182 246 248 184
f 159 223 221 157
f 192 256 194 130
f 169 233 231 167
f 179 243 241 177
f 189 253 251 187
f 138 202 204 140
f 148 212 214 150
f 158 222 224 160
f 135 199 197 133
f 145 209 207 143
f 168 232 234 170
f 131 195 193 129
f 155 219 217 153
f 178 242 244 180
f 188 252 254 190
f 165 229 227 163
f 175 239 237 173
f 185 249 247 183
f 134 198 200 136
f 144 208 210 146
f 154 218 220 156
f 141 205 203 139
f 164 228 230 166
f 174 238 240 176
f 151 215 213 149
f 184 248 250 186
f 161 225 223 159
f 171 235 233 169
f 130 194 196 132
f 181 245 243 179
f 191 255 253 189
f 140 204 206 142
f 150 214 216 152
f 137 201 199 135
f 160 224 226 162
f 147 211 209 145
f 170 234 236 172
f 157 221 219 155
f 180 244 246 182
f 190 254 256 192
f 167 231 229 165
f 177 241 239 175
f 187 251 249 185
f 136 200 202 138
f 146 210 212 148
f 133 197 195 131
f 156 220 222 158
f 143 207 205 141
f 166 230 232 168
f 153 217 215 151
f 176 240 242 178
f 186 250 252 188
f 163 227 225 161
f 173 237 235 171
f 183 247 245 181
f 132 196 198 134
f 129 193 255 191
f 142 206 208 144
f 314 378 380 316
f 304 368 370 306
f 281 345 343 279
f 294 358 360 296
f 271 335 333 269
f 284 348 350 286
f 261 325 323 259
f 274 338 340 276
f 264 328 330 266
f 315 379 377 313
f 305 369 367 303
f 295 359 357 293
f 318 382 384 320
f 285 349 347 283
f 308 372 374 310
f 298 362 364 300
f 275 339 337 273
f 288 352 354 290
f 265 329 327 263
f 278 342 344 280
f 268 332 334 270
f 319 383 381 317
f 309 373 371 307
f 258 322 324 260
f 299 363 361 297
f 289 353 351 287
f 312 376 378 314
f 302 366 368 304
f 279 343 341 277
f 292 356 358 294
f 269 333 331 267
f 282 346 348 284
f 235 299 297 233
f 194 258 260 196
f 245 309 307 243
f 255 319 317 253
f 204 268 270 206
f 214 278 280 216
f 201 265 263 199
f 224 288 290 226
f 211 275 273 209
f 234 298 300 236
f 221 285 283 219
f 244 308 310 246
f 254 318 320 256
f 231 295 293 229
f 241 305 303 239
f 251 315 313 249
f 200 264 266 202
f 210 274 276 212
f 197 261 259 195
f 220 284 286 222
f 207 271 269 205
f 230 294 296 232
f 217 281 279 215
f 240 304 306 242
f 250 314 316 252
f 227 291 289 225
f 237 301 299 235
f 247 311 309 245
f 196 260 262 198
f 193 257 319 255
f 206 270 272 208
f 216 280 282 218
f 368 408 409 370
f 358 403 404 360
f 348 398 399 350
f 338 393 394 340
f 328 388 389 330
f 382 415 416 384
f 372 410 411 374
f 362 405 406 364
f 352 400 401 354
f 342 395 396 344
f 332 390 391 334
f 376 412 413 378
f 366 407 408 368
f 356 402 403 358
f 346 397 398 348
f 336 392 393 338
f 291 355 353 289
f 301 365 363 299
f 311 375 373 309
f 260 324 326 262
f 257 321 383 319
f 270 334 336 272
f 280 344 346 282
f 290 354 356 292
f 267 331 329 265
f 277 341 339 275
f 300 364 366 302
f 310 374 376 312
f 287 351 349 285
f 320 384 322 258
f 297 361 359 295
f 307 371 369 305
f 317 381 379 315
f 266 330 332 268
f 276 340 342 278
f 263 327 325 261
f 286 350 352 288
f 273 337 335 271
f 296 360 362 298
f 259 323 321 257
f 283 347 345 281
f 306 370 372 308
f 316 380 382 318
f 293 357 355 291
f 303 367 365 301
f 313 377 375 311
f 262 326 328 264
f 272 336 338 274
f 378 413 414 380
f 324 386 387 326
f 334 391 392 336
f 344 396 397 346
f 354 401 402 356
f 364 406 407 366
f 374 411 412 376
f 330 389 390 332
f 340 394 395 342
f 350 399 400 352
f 360 404 405 362
f 370 409 410 372
f 380 414 415 382
f 326 387 388 328
f 345 397 396 343
f 335 392 391 333
f 325 387 386 323
f 379 414 413 377
f 369 409 408 367
f 359 404 403 357
f 349 399 398 347
f 339 394 393 337
f 329 389 388 327
f 383 416 415 381
f 373 411 410 371
f 322 385 386 324
f 363 406 405 361
f 353 401 400 351
f 343 396 395 341
f 333 391 390 331
f 355 402 401 353
f 365 407 406 363
f 375 412 411 373
f 321 385 416 383
f 331 390 389 329
f 341 395 394 339
f 351 400 399 349
f 384 416 385 322
f 361 405 404 359
f 371 410 409 369
f 381 415 414 379
f 327 388 387 325
f 337 393 392 335
f 323 386 385 321
f 347 398 397 345
f 357 403 402 355
f 367 408 407 365
f 377 413 412 375
f 409 441 440 408
f 387 419 418 386
f 398 430 429 397
f 407 439 438 406
f 396 428 427 395
f 416 448 447 415
f 405 437 436 404
f 394 426 425 393
f 386 418 417 385
f 414 446 445 413
f 403 435 434 402
f 392 424 423 391
f 412 444 443 411
f 390 422 421 389
f 401 433 432 400
f 410 442 441 409
f 388 420 419 387
f 399 431 430 398
f 408 440 439 407
f 397 429 428 396
f 406 438 437 405
f 395 427 426 394
f 416 448 417 385
f 415 447 446 414
f 404 436 435 403
f 393 425 424 392
f 413 445 444 412
f 391 423 422 390
f 402 434 433 401
f 411 443 442 410
f 389 421 420 388
f 400 432 431 399
f 447 479 478 446
f 436 468 467 435
f 425 457 456 424
f 445 477 476 444
f 423 455 454 422
f 434 466 465 433
f 443 475 474 442
f 421 453 452 420
f 432 464 463 431
f 441 473 472 440
f 419 451 450 418
f 430 462 461 429
f 448 480 449 417
f 439 471 470 438
f 428 460 459 427
f 448 480 479 447
f 437 469 468 436
f 426 458 457 425
f 446 478 477 445
f 435 467 466 434
f 424 456 455 423
f 444 476 475 443
f 422 454 453 421
f 433 465 464 432
f 442 474 473 441
f 420 452 451 419
f 431 463 462 430
f 440 472 471 439
f 429 461 460 428
f 418 450 449 417
f 438 470 469 437
f 427 459 458 426
f 480 512 481 449
f 471 503 502 470
f 460 492 491 459
f 480 512 511 479
f 469 501 500 468
f 458 490 489 457
f 478 510 509 477
f 467 499 498 466
f 456 488 487 455
f 476 508 507 475
f 454 486 485 453
f 465 497 496 464
f 474 506 505 473
f 452 484 483 451
f 463 495 494 462
f 472 504 503 471
f 461 493 492 460
f 450 482 481 449
f 470 502 501 469
f 459 491 490 458
f 479 511 510 478
f 468 500 499 467
f 457 489 488 456
f 477 509 508 476
f 455 487 486 454
f 466 498 497 465
f 475 507 506 474
f 453 485 484 452
f 464 496 495 463
f 473 505 504 472
f 451 483 482 450
f 462 494 493 461
