# Exported from Webots PROTO
v 0.000000 0.040000 0.002500
v 0.000000 0.040000 -0.002500
v -0.007804 0.039231 0.002500
v -0.007804 0.039231 -0.002500
v -0.015307 0.036955 0.002500
v -0.015307 0.036955 -0.002500
v -0.022223 0.033259 0.002500
v -0.022223 0.033259 -0.002500
v -0.028284 0.028284 0.002500
v -0.028284 0.028284 -0.002500
v -0.033259 0.022223 0.002500
v -0.033259 0.022223 -0.002500
v -0.036955 0.015307 0.002500
v -0.036955 0.015307 -0.002500
v -0.039231 0.007804 0.002500
v -0.039231 0.007804 -0.002500
v -0.040000 0.000000 0.002500
v -0.040000 0.000000 -0.002500
v -0.039231 -0.007804 0.002500
v -0.039231 -0.007804 -0.002500
v -0.036955 -0.015307 0.002500
v -0.036955 -0.015307 -0.002500
v -0.033259 -0.022223 0.002500
v -0.033259 -0.022223 -0.002500
v -0.028284 -0.028284 0.002500
v -0.028284 -0.028284 -0.002500
v -0.022223 -0.033259 0.002500
v -0.022223 -0.033259 -0.002500
v -0.015307 -0.036955 0.002500
v -0.015307 -0.036955 -0.002500
v -0.007804 -0.039231 0.002500
v -0.007804 -0.039231 -0.002500
v 0.000000 -0.040000 0.002500
v 0.000000 -0.040000 -0.002500
v 0.007804 -0.039231 0.002500
v 0.007804 -0.039231 -0.002500
v 0.015307 -0.036955 0.002500
v 0.015307 -0.036955 -0.002500
v 0.022223 -0.033259 0.002500
v 0.022223 -0.033259 -0.002500
v 0.028284 -0.028284 0.002500
v 0.028284 -0.028284 -0.002500
v 0.033259 -0.022223 0.002500
v 0.033259 -0.022223 -0.002500
v 0.036955 -0.015307 0.002500
v 0.036955 -0.015307 -0.002500
v 0.039231 -0.007804 0.002500
v 0.039231 -0.007804 -0.002500
v 0.040000 0.000000 0.002500
v 0.040000 0.000000 -0.002500
v 0.039231 0.007804 0.002500
v 0.039231 0.007804 -0.002500
v 0.036955 0.015307 0.002500
v 0.036955 0.015307 -0.002500
v 0.033259 0.022223 0.002500
v 0.033259 0.022223 -0.002500
v 0.028284 0.028284 0.002500
v 0.028284 0.028284 -0.002500
v 0.022223 0.033259 0.002500
v 0.022223 0.033259 -0.002500
v 0.015307 0.036955 0.002500
v 0.015307 0.036955 -0.002500
v 0.007804 0.039231 0.002500
v 0.007804 0.039231 -0.002500
v 0.000000 0.010000 0.000625
v 0.000000 0.010000 -0.000625
v -0.001951 0.009808 0.000625
v -0.001951 0.009808 -0.000625
v -0.003827 0.009239 0.000625
v -0.003827 0.009239 -0.000625
v -0.005556 0.008315 0.000625
v -0.005556 0.008315 -0.000625
v -0.007071 0.007071 0.000625
v -0.007071 0.007071 -0.000625
v -0.008315 0.005556 0.000625
v -0.008315 0.005556 -0.000625
v -0.009239 0.003827 0.000625
v -0.009239 0.003827 -0.000625
v -0.009808 0.001951 0.000625
v -0.009808 0.001951 -0.000625
v -0.010000 0.000000 0.000625
v -0.010000 0.000000 -0.000625
v -0.009808 -0.001951 0.000625
v -0.009808 -0.001951 -0.000625
v -0.009239 -0.003827 0.000625
v -0.009239 -0.003827 -0.000625
v -0.008315 -0.005556 0.000625
v -0.008315 -0.005556 -0.000625
v -0.007071 -0.007071 0.000625
v -0.007071 -0.007071 -0.000625
v -0.005556 -0.008315 0.000625
v -0.005556 -0.008315 -0.000625
v -0.003827 -0.009239 0.000625
v -0.003827 -0.009239 -0.000625
v -0.001951 -0.009808 0.000625
v -0.001951 -0.009808 -0.000625
v 0.000000 -0.010000 0.000625
v 0.000000 -0.010000 -0.000625
v 0.001951 -0.009808 0.000625
v 0.001951 -0.009808 -0.000625
v 0.003827 -0.009239 0.000625
v 0.003827 -0.009239 -0.000625
v 0.005556 -0.008315 0.000625
v 0.005556 -0.008315 -0.000625
v 0.007071 -0.007071 0.000625
v 0.007071 -0.007071 -0.000625
v 0.008315 -0.005556 0.000625
v 0.008315 -0.005556 -0.000625
v 0.009239 -0.003827 0.000625
v 0.009239 -0.003827 -0.000625
v 0.009808 -0.001951 0.000625
v 0.009808 -0.001951 -0.000625
v 0.010000 0.000000 0.000625
v 0.010000 0.000000 -0.000625
v 0.009808 0.001951 0.000625
v 0.009808 0.001951 -0.000625
v 0.009239 0.003827 0.000625
v 0.009239 0.003827 -0.000625
v 0.008315 0.005556 0.000625
v 0.008315 0.005556 -0.000625
v 0.007071 0.007071 0.000625
v 0.007071 0.007071 -0.000625
v 0.005556 0.008315 0.000625
v 0.005556 0.008315 -0.000625
v 0.003827 0.009239 0.000625
v 0.003827 0.009239 -0.000625
v 0.001951 0.009808 0.000625
v 0.001951 0.009808 -0.000625
v 0.000000 0.010000 0.000625
v 0.000000 0.010000 -0.000625
v -0.001951 0.009808 0.000625
v -0.001951 0.009808 -0.000625
v -0.003827 0.009239 0.000625
v -0.003827 0.009239 -0.000625
v -0.005556 0.008315 0.000625
v -0.005556 0.008315 -0.000625
v -0.007071 0.007071 0.000625
v -0.007071 0.007071 -0.000625
v -0.008315 0.005556 0.000625
v -0.008315 0.005556 -0.000625
v -0.009239 0.003827 0.000625
v -0.009239 0.003827 -0.000625
v -0.009808 0.001951 0.000625
v -0.009808 0.001951 -0.000625
v -0.010000 0.000000 0.000625
v -0.010000 0.000000 -0.000625
v -0.009808 -0.001951 0.000625
v -0.009808 -0.001951 -0.000625
v -0.009239 -0.003827 0.000625
v -0.009239 -0.003827 -0.000625
v -0.008315 -0.005556 0.000625
v -0.008315 -0.005556 -0.000625
v -0.007071 -0.007071 0.000625
v -0.007071 -0.007071 -0.000625
v -0.005556 -0.008315 0.000625
v -0.005556 -0.008315 -0.000625
v -0.003827 -0.009239 0.000625
v -0.003827 -0.009239 -0.000625
v -0.001951 -0.009808 0.000625
v -0.001951 -0.009808 -0.000625
v 0.000000 -0.010000 0.000625
v 0.000000 -0.010000 -0.000625
v 0.001951 -0.009808 0.000625
v 0.001951 -0.009808 -0.000625
v 0.003827 -0.009239 0.000625
v 0.003827 -0.009239 -0.000625
v 0.005556 -0.008315 0.000625
v 0.005556 -0.008315 -0.000625
v 0.007071 -0.007071 0.000625
v 0.007071 -0.007071 -0.000625
v 0.008315 -0.005556 0.000625
v 0.008315 -0.005556 -0.000625
v 0.009239 -0.003827 0.000625
v 0.009239 -0.003827 -0.000625
v 0.009808 -0.001951 0.000625
v 0.009808 -0.001951 -0.000625
v 0.010000 0.000000 0.000625
v 0.010000 0.000000 -0.000625
v 0.009808 0.001951 0.000625
v 0.009808 0.001951 -0.000625
v 0.009239 0.003827 0.000625
v 0.009239 0.003827 -0.000625
v 0.008315 0.005556 0.000625
v 0.008315 0.005556 -0.000625
v 0.007071 0.007071 0.000625
v 0.007071 0.007071 -0.000625
v 0.005556 0.008315 0.000625
v 0.005556 0.008315 -0.000625
v 0.003827 0.009239 0.000625
v 0.003827 0.009239 -0.000625
v 0.001951 0.009808 0.000625
v 0.001951 0.009808 -0.000625
v 0.000000 0.010000 0.000625
v 0.000000 0.010000 -0.000625
v -0.001951 0.009808 0.000625
v -0.001951 0.009808 -0.000625
v -0.003827 0.009239 0.000625
v -0.003827 0.009239 -0.000625
v -0.005556 0.008315 0.000625
v -0.005556 0.008315 -0.000625
v -0.007071 0.007071 0.000625
v -0.007071 0.007071 -0.000625
v -0.008315 0.005556 0.000625
v -0.008315 0.005556 -0.000625
v -0.009239 0.003827 0.000625
v -0.009239 0.003827 -0.000625
v -0.009808 0.001951 0.000625
v -0.009808 0.001951 -0.000625
v -0.010000 0.000000 0.000625
v -0.010000 0.000000 -0.000625
v -0.009808 -0.001951 0.000625
v -0.009808 -0.001951 -0.000625
v -0.009239 -0.003827 0.000625
v -0.009239 -0.003827 -0.000625
v -0.008315 -0.005556 0.000625
v -0.008315 -0.005556 -0.000625
v -0.007071 -0.007071 0.000625
v -0.007071 -0.007071 -0.000625
v -0.005556 -0.008315 0.000625
v -0.005556 -0.008315 -0.000625
v -0.003827 -0.009239 0.000625
v -0.003827 -0.009239 -0.000625
v -0.001951 -0.009808 0.000625
v -0.001951 -0.009808 -0.000625
v 0.000000 -0.010000 0.000625
v 0.000000 -0.010000 -0.000625
v 0.001951 -0.009808 0.000625
v 0.001951 -0.009808 -0.000625
v 0.003827 -0.009239 0.000625
v 0.003827 -0.009239 -0.000625
v 0.005556 -0.008315 0.000625
v 0.005556 -0.008315 -0.000625
v 0.007071 -0.007071 0.000625
v 0.007071 -0.007071 -0.000625
v 0.008315 -0.005556 0.000625
v 0.008315 -0.005556 -0.000625
v 0.009239 -0.003827 0.000625
v 0.009239 -0.003827 -0.000625
v 0.009808 -0.001951 0.000625
v 0.009808 -0.001951 -0.000625
v 0.010000 0.000000 0.000625
v 0.010000 0.000000 -0.000625
v 0.009808 0.001951 0.000625
v 0.009808 0.001951 -0.000625
v 0.009239 0.003827 0.000625
v 0.009239 0.003827 -0.000625
v 0.008315 0.005556 0.000625
v 0.008315 0.005556 -0.000625
v 0.007071 0.007071 0.000625
v 0.007071 0.007071 -0.000625
v 0.005556 0.008315 0.000625
v 0.005556 0.008315 -0.000625
v 0.003827 0.009239 0.000625
v 0.003827 0.009239 -0.000625
v 0.001951 0.009808 0.000625
v 0.001951 0.009808 -0.000625
v 0.000000 0.009900 0.000000
v -0.001931 0.009710 0.000000
v -0.003789 0.009146 0.000000
v -0.005500 0.008232 0.000000
v -0.007000 0.007000 0.000000
v -0.008232 0.005500 0.000000
v -0.009146 0.003789 0.000000
v -0.009710 0.001931 0.000000
v -0.009900 0.000000 0.000000
v -0.009710 -0.001931 0.000000
v -0.009146 -0.003789 0.000000
v -0.008232 -0.005500 0.000000
v -0.007000 -0.007000 0.000000
v -0.005500 -0.008232 0.000000
v -0.003789 -0.009146 0.000000
v -0.001931 -0.009710 0.000000
v 0.000000 -0.009900 0.000000
v 0.001931 -0.009710 0.000000
v 0.003789 -0.009146 0.000000
v 0.005500 -0.008232 0.000000
v 0.007000 -0.007000 0.000000
v 0.008232 -0.005500 0.000000
v 0.009146 -0.003789 0.000000
v 0.009710 -0.001931 0.000000
v 0.009900 0.000000 0.000000
v 0.009710 0.001931 0.000000
v 0.009146 0.003789 0.000000
v 0.008232 0.005500 0.000000
v 0.007000 0.007000 0.000000
v 0.005500 0.008232 0.000000
v 0.003789 0.009146 0.000000
v 0.001931 0.009710 0.000000
v 0.000000 0.009900 0.000000
v -0.001931 0.009710 0.000000
v -0.003789 0.009146 0.000000
v -0.005500 0.008232 0.000000
v -0.007000 0.007000 0.000000
v -0.008232 0.005500 0.000000
v -0.009146 0.003789 0.000000
v -0.009710 0.001931 0.000000
v -0.009900 0.000000 0.000000
v -0.009710 -0.001931 0.000000
v -0.009146 -0.003789 0.000000
v -0.008232 -0.005500 0.000000
v -0.007000 -0.007000 0.000000
v -0.005500 -0.008232 0.000000
v -0.003789 -0.009146 0.000000
v -0.001931 -0.009710 0.000000
v 0.000000 -0.009900 0.000000
v 0.001931 -0.009710 0.000000
v 0.003789 -0.009146 0.000000
v 0.005500 -0.008232 0.000000
v 0.007000 -0.007000 0.000000
v 0.008232 -0.005500 0.000000
v 0.009146 -0.003789 0.000000
v 0.009710 -0.001931 0.000000
v 0.009900 0.000000 0.000000
v 0.009710 0.001931 0.000000
v 0.009146 0.003789 0.000000
v 0.008232 0.005500 0.000000
v 0.007000 0.007000 0.000000
v 0.005500 0.008232 0.000000
v 0.003789 0.009146 0.000000
v 0.001931 0.009710 0.000000
v 0.000000 0.009900 -0.002500
v -0.001931 0.009710 -0.002500
v -0.003789 0.009146 -0.002500
v -0.005500 0.008232 -0.002500
v -0.007000 0.007000 -0.002500
v -0.008232 0.005500 -0.002500
v -0.009146 0.003789 -0.002500
v -0.009710 0.001931 -0.002500
v -0.009900 0.000000 -0.002500
v -0.009710 -0.001931 -0.002500
v -0.009146 -0.003789 -0.002500
v -0.008232 -0.005500 -0.002500
v -0.007000 -0.007000 -0.002500
v -0.005500 -0.008232 -0.002500
v -0.003789 -0.009146 -0.002500
v -0.001931 -0.009710 -0.002500
v 0.000000 -0.009900 -0.002500
v 0.001931 -0.009710 -0.002500
v 0.003789 -0.009146 -0.002500
v 0.005500 -0.008232 -0.002500
v 0.007000 -0.007000 -0.002500
v 0.008232 -0.005500 -0.002500
v 0.009146 -0.003789 -0.002500
v 0.009710 -0.001931 -0.002500
v 0.009900 0.000000 -0.002500
v 0.009710 0.001931 -0.002500
v 0.009146 0.003789 -0.002500
v 0.008232 0.005500 -0.002500
v 0.007000 0.007000 -0.002500
v 0.005500 0.008232 -0.002500
v 0.003789 0.009146 -0.002500
v 0.001931 0.009710 -0.002500
v 0.000000 0.001485 -0.002500
v -0.000290 0.001456 -0.002500
v -0.000568 0.001372 -0.002500
v -0.000825 0.001235 -0.002500
v -0.001050 0.001050 -0.002500
v -0.001235 0.000825 -0.002500
v -0.001372 0.000568 -0.002500
v -0.001456 0.000290 -0.002500
v -0.001485 0.000000 -0.002500
v -0.001456 -0.000290 -0.002500
v -0.001372 -0.000568 -0.002500
v -0.001235 -0.000825 -0.002500
v -0.001050 -0.001050 -0.002500
v -0.000825 -0.001235 -0.002500
v -0.000568 -0.001372 -0.002500
v -0.000290 -0.001456 -0.002500
v 0.000000 -0.001485 -0.002500
v 0.000290 -0.001456 -0.002500
v 0.000568 -0.001372 -0.002500
v 0.000825 -0.001235 -0.002500
v 0.001050 -0.001050 -0.002500
v 0.001235 -0.000825 -0.002500
v 0.001372 -0.000568 -0.002500
v 0.001456 -0.000290 -0.002500
v 0.001485 0.000000 -0.002500
v 0.001456 0.000290 -0.002500
v 0.001372 0.000568 -0.002500
v 0.001235 0.000825 -0.002500
v 0.001050 0.001050 -0.002500
v 0.000825 0.001235 -0.002500
v 0.000568 0.001372 -0.002500
v 0.000290 0.001456 -0.002500
v 0.000000 0.045000 0.004500
v 0.000000 0.045000 -0.004500
v -0.008779 0.044135 0.004500
v -0.008779 0.044135 -0.004500
v -0.017221 0.041575 0.004500
v -0.017221 0.041575 -0.004500
v -0.025001 0.037416 0.004500
v -0.025001 0.037416 -0.004500
v -0.031820 0.031820 0.004500
v -0.031820 0.031820 -0.004500
v -0.037416 0.025001 0.004500
v -0.037416 0.025001 -0.004500
v -0.041575 0.017221 0.004500
v -0.041575 0.017221 -0.004500
v -0.044135 0.008779 0.004500
v -0.044135 0.008779 -0.004500
v -0.045000 0.000000 0.004500
v -0.045000 0.000000 -0.004500
v -0.044135 -0.008779 0.004500
v -0.044135 -0.008779 -0.004500
v -0.041575 -0.017221 0.004500
v -0.041575 -0.017221 -0.004500
v -0.037416 -0.025001 0.004500
v -0.037416 -0.025001 -0.004500
v -0.031820 -0.031820 0.004500
v -0.031820 -0.031820 -0.004500
v -0.025001 -0.037416 0.004500
v -0.025001 -0.037416 -0.004500
v -0.017221 -0.041575 0.004500
v -0.017221 -0.041575 -0.004500
v -0.008779 -0.044135 0.004500
v -0.008779 -0.044135 -0.004500
v 0.000000 -0.045000 0.004500
v 0.000000 -0.045000 -0.004500
v 0.008779 -0.044135 0.004500
v 0.008779 -0.044135 -0.004500
v 0.017221 -0.041575 0.004500
v 0.017221 -0.041575 -0.004500
v 0.025001 -0.037416 0.004500
v 0.025001 -0.037416 -0.004500
v 0.031820 -0.031820 0.004500
v 0.031820 -0.031820 -0.004500
v 0.037416 -0.025001 0.004500
v 0.037416 -0.025001 -0.004500
v 0.041575 -0.017221 0.004500
v 0.041575 -0.017221 -0.004500
v 0.044135 -0.008779 0.004500
v 0.044135 -0.008779 -0.004500
v 0.045000 0.000000 0.004500
v 0.045000 0.000000 -0.004500
v 0.044135 0.008779 0.004500
v 0.044135 0.008779 -0.004500
v 0.041575 0.017221 0.004500
v 0.041575 0.017221 -0.004500
v 0.037416 0.025001 0.004500
v 0.037416 0.025001 -0.004500
v 0.031820 0.031820 0.004500
v 0.031820 0.031820 -0.004500
v 0.025001 0.037416 0.004500
v 0.025001 0.037416 -0.004500
v 0.017221 0.041575 0.004500
v 0.017221 0.041575 -0.004500
v 0.008779 0.044135 0.004500
v 0.008779 0.044135 -0.004500
v 0.000000 0.040500 0.004050
v 0.000000 0.040500 -0.004050
v -0.007901 0.039722 0.004050
v -0.007901 0.039722 -0.004050
v -0.015499 0.037417 0.004050
v -0.015499 0.037417 -0.004050
v -0.022501 0.033674 0.004050
v -0.022501 0.033674 -0.004050
v -0.028638 0.028638 0.004050
v -0.028638 0.028638 -0.004050
v -0.033674 0.022501 0.004050
v -0.033675 0.022501 -0.004050
v -0.037417 0.015499 0.004050
v -0.037417 0.015499 -0.004050
v -0.039722 0.007901 0.004050
v -0.039722 0.007901 -0.004050
v -0.040500 0.000000 0.004050
v -0.040500 0.000000 -0.004050
v -0.039722 -0.007901 0.004050
v -0.039722 -0.007901 -0.004050
v -0.037417 -0.015499 0.004050
v -0.037417 -0.015499 -0.004050
v -0.033674 -0.022501 0.004050
v -0.033675 -0.022501 -0.004050
v -0.028638 -0.028638 0.004050
v -0.028638 -0.028638 -0.004050
v -0.022501 -0.033674 0.004050
v -0.022501 -0.033674 -0.004050
v -0.015499 -0.037417 0.004050
v -0.015499 -0.037417 -0.004050
v -0.007901 -0.039722 0.004050
v -0.007901 -0.039722 -0.004050
v 0.000000 -0.040500 0.004050
v 0.000000 -0.040500 -0.004050
v 0.007901 -0.039722 0.004050
v 0.007901 -0.039722 -0.004050
v 0.015499 -0.037417 0.004050
v 0.015499 -0.037417 -0.004050
v 0.022501 -0.033674 0.004050
v 0.022501 -0.033674 -0.004050
v 0.028638 -0.028638 0.004050
v 0.028638 -0.028638 -0.004050
v 0.033675 -0.022501 0.004050
v 0.033674 -0.022501 -0.004050
v 0.037417 -0.015499 0.004050
v 0.037417 -0.015499 -0.004050
v 0.039722 -0.007901 0.004050
v 0.039722 -0.007901 -0.004050
v 0.040500 0.000000 0.004050
v 0.040500 0.000000 -0.004050
v 0.039722 0.007901 0.004050
v 0.039722 0.007901 -0.004050
v 0.037417 0.015499 0.004050
v 0.037417 0.015499 -0.004050
v 0.033675 0.022501 0.004050
v 0.033674 0.022501 -0.004050
v 0.028638 0.028638 0.004050
v 0.028638 0.028638 -0.004050
v 0.022501 0.033675 0.004050
v 0.022501 0.033675 -0.004050
v 0.015499 0.037417 0.004050
v 0.015499 0.037417 -0.004050
v 0.007901 0.039722 0.004050
v 0.007901 0.039722 -0.004050
f 1 2 4 3
f 3 4 6 5
f 5 6 8 7
f 7 8 10 9
f 9 10 12 11
f 11 12 14 13
f 13 14 16 15
f 15 16 18 17
f 17 18 20 19
f 19 20 22 21
f 21 22 24 23
f 23 24 26 25
f 25 26 28 27
f 27 28 30 29
f 29 30 32 31
f 31 32 34 33
f 33 34 36 35
f 35 36 38 37
f 37 38 40 39
f 39 40 42 41
f 41 42 44 43
f 43 44 46 45
f 45 46 48 47
f 47 48 50 49
f 49 50 52 51
f 51 52 54 53
f 53 54 56 55
f 55 56 58 57
f 57 58 60 59
f 59 60 62 61
f 61 62 64 63
f 63 64 2 1
f 97 161 159 95
f 120 184 186 122
f 110 174 176 112
f 87 151 149 85
f 100 164 166 102
f 77 141 139 75
f 90 154 156 92
f 80 144 146 82
f 70 134 136 72
f 121 185 183 119
f 111 175 173 109
f 101 165 163 99
f 124 188 190 126
f 91 155 153 89
f 67 131 129 65
f 114 178 180 116
f 104 168 170 106
f 81 145 143 79
f 94 158 160 96
f 71 135 133 69
f 84 148 150 86
f 74 138 140 76
f 125 189 187 123
f 115 179 177 113
f 105 169 167 103
f 128 192 130 66
f 95 159 157 93
f 118 182 184 120
f 108 172 174 110
f 85 149 147 83
f 75 139 137 73
f 98 162 164 100
f 24 88 90 26
f 11 75 73 9
f 34 98 100 36
f 21 85 83 19
f 44 108 110 46
f 54 118 120 56
f 31 95 93 29
f 64 128 66 2
f 41 105 103 39
f 51 115 113 49
f 61 125 123 59
f 10 74 76 12
f 20 84 86 22
f 30 94 96 32
f 7 71 69 5
f 17 81 79 15
f 40 104 106 42
f 3 67 65 1
f 27 91 89 25
f 50 114 116 52
f 60 124 126 62
f 37 101 99 35
f 47 111 109 45
f 57 121 119 55
f 6 70 72 8
f 16 80 82 18
f 26 90 92 28
f 13 77 75 11
f 36 100 102 38
f 46 110 112 48
f 23 87 85 21
f 56 120 122 58
f 33 97 95 31
f 43 107 105 41
f 2 66 68 4
f 53 117 115 51
f 63 127 125 61
f 12 76 78 14
f 22 86 88 24
f 9 73 71 7
f 32 96 98 34
f 19 83 81 17
f 42 106 108 44
f 29 93 91 27
f 52 116 118 54
f 62 126 128 64
f 39 103 101 37
f 49 113 111 47
f 59 123 121 57
f 8 72 74 10
f 18 82 84 20
f 5 69 67 3
f 28 92 94 30
f 15 79 77 13
f 38 102 104 40
f 25 89 87 23
f 48 112 114 50
f 58 122 124 60
f 35 99 97 33
f 45 109 107 43
f 55 119 117 53
f 4 68 70 6
f 1 65 127 63
f 14 78 80 16
f 186 250 252 188
f 176 240 242 178
f 153 217 215 151
f 166 230 232 168
f 143 207 205 141
f 156 220 222 158
f 133 197 195 131
f 146 210 212 148
f 136 200 202 138
f 187 251 249 185
f 177 241 239 175
f 167 231 229 165
f 190 254 256 192
f 157 221 219 155
f 180 244 246 182
f 170 234 236 172
f 147 211 209 145
f 160 224 226 162
f 137 201 199 135
f 150 214 216 152
f 140 204 206 142
f 191 255 253 189
f 181 245 243 179
f 130 194 196 132
f 171 235 233 169
f 161 225 223 159
f 184 248 250 186
f 174 238 240 176
f 151 215 213 149
f 164 228 230 166
f 141 205 203 139
f 154 218 220 156
f 107 171 169 105
f 66 130 132 68
f 117 181 179 115
f 127 191 189 125
f 76 140 142 78
f 86 150 152 88
f 73 137 135 71
f 96 160 162 98
f 83 147 145 81
f 106 170 172 108
f 93 157 155 91
f 116 180 182 118
f 126 190 192 128
f 103 167 165 101
f 113 177 175 111
f 123 187 185 121
f 72 136 138 74
f 82 146 148 84
f 69 133 131 67
f 92 156 158 94
f 79 143 141 77
f 102 166 168 104
f 89 153 151 87
f 112 176 178 114
f 122 186 188 124
f 99 163 161 97
f 109 173 171 107
f 119 183 181 117
f 68 132 134 70
f 65 129 191 127
f 78 142 144 80
f 88 152 154 90
f 240 280 281 242
f 230 275 276 232
f 220 270 271 222
f 210 265 266 212
f 200 260 261 202
f 254 287 288 256
f 244 282 283 246
f 234 277 278 236
f 224 272 273 226
f 214 267 268 216
f 204 262 263 206
f 248 284 285 250
f 238 279 280 240
f 228 274 275 230
f 218 269 270 220
f 208 264 265 210
f 163 227 225 161
f 173 237 235 171
f 183 247 245 181
f 132 196 198 134
f 129 193 255 191
f 142 206 208 144
f 152 216 218 154
f 162 226 228 164
f 139 203 201 137
f 149 213 211 147
f 172 236 238 174
f 182 246 248 184
f 159 223 221 157
f 192 256 194 130
f 169 233 231 167
f 179 243 241 177
f 189 253 251 187
f 138 202 204 140
f 148 212 214 150
f 135 199 197 133
f 158 222 224 160
f 145 209 207 143
f 168 232 234 170
f 131 195 193 129
f 155 219 217 153
f 178 242 244 180
f 188 252 254 190
f 165 229 227 163
f 175 239 237 173
f 185 249 247 183
f 134 198 200 136
f 144 208 210 146
f 250 285 286 252
f 196 258 259 198
f 206 263 264 208
f 216 268 269 218
f 226 273 274 228
f 236 278 279 238
f 246 283 284 248
f 202 261 262 204
f 212 266 267 214
f 222 271 272 224
f 232 276 277 234
f 242 281 282 244
f 252 286 287 254
f 198 259 260 200
f 217 269 268 215
f 207 264 263 205
f 197 259 258 195
f 251 286 285 249
f 241 281 280 239
f 231 276 275 229
f 221 271 270 219
f 211 266 265 209
f 201 261 260 199
f 255 288 287 253
f 245 283 282 243
f 194 257 258 196
f 235 278 277 233
f 225 273 272 223
f 215 268 267 213
f 205 263 262 203
f 227 274 273 225
f 237 279 278 235
f 247 284 283 245
f 193 257 288 255
f 203 262 261 201
f 213 267 266 211
f 223 272 271 221
f 256 288 257 194
f 233 277 276 231
f 243 282 281 241
f 253 287 286 251
f 199 260 259 197
f 209 265 264 207
f 195 258 257 193
f 219 270 269 217
f 229 275 274 227
f 239 280 279 237
f 249 285 284 247
f 281 313 312 280
f 259 291 290 258
f 270 302 301 269
f 279 311 310 278
f 268 300 299 267
f 288 320 319 287
f 277 309 308 276
f 266 298 297 265
f 258 290 289 257
f 286 318 317 285
f 275 307 306 274
f 264 296 295 263
f 284 316 315 283
f 262 294 293 261
f 273 305 304 272
f 282 314 313 281
f 260 292 291 259
f 271 303 302 270
f 280 312 311 279
f 269 301 300 268
f 278 310 309 277
f 267 299 298 266
f 288 320 289 257
f 287 319 318 286
f 276 308 307 275
f 265 297 296 264
f 285 317 316 284
f 263 295 294 262
f 274 306 305 273
f 283 315 314 282
f 261 293 292 260
f 272 304 303 271
f 319 351 350 318
f 308 340 339 307
f 297 329 328 296
f 317 349 348 316
f 295 327 326 294
f 306 338 337 305
f 315 347 346 314
f 293 325 324 292
f 304 336 335 303
f 313 345 344 312
f 291 323 322 290
f 302 334 333 301
f 320 352 321 289
f 311 343 342 310
f 300 332 331 299
f 320 352 351 319
f 309 341 340 308
f 298 330 329 297
f 318 350 349 317
f 307 339 338 306
f 296 328 327 295
f 316 348 347 315
f 294 326 325 293
f 305 337 336 304
f 314 346 345 313
f 292 324 323 291
f 303 335 334 302
f 312 344 343 311
f 301 333 332 300
f 290 322 321 289
f 310 342 341 309
f 299 331 330 298
f 352 384 353 321
f 343 375 374 342
f 332 364 363 331
f 352 384 383 351
f 341 373 372 340
f 330 362 361 329
f 350 382 381 349
f 339 371 370 338
f 328 360 359 327
f 348 380 379 347
f 326 358 357 325
f 337 369 368 336
f 346 378 377 345
f 324 356 355 323
f 335 367 366 334
f 344 376 375 343
f 333 365 364 332
f 322 354 353 321
f 342 374 373 341
f 331 363 362 330
f 351 383 382 350
f 340 372 371 339
f 329 361 360 328
f 349 381 380 348
f 327 359 358 326
f 338 370 369 337
f 347 379 378 346
f 325 357 356 324
f 336 368 367 335
f 345 377 376 344
f 323 355 354 322
f 334 366 365 333
f 385 386 388 387
f 387 388 390 389
f 389 390 392 391
f 391 392 394 393
f 393 394 396 395
f 395 396 398 397
f 397 398 400 399
f 399 400 402 401
f 401 402 404 403
f 403 404 406 405
f 405 406 408 407
f 407 408 410 409
f 409 410 412 411
f 411 412 414 413
f 413 414 416 415
f 415 416 418 417
f 417 418 420 419
f 419 420 422 421
f 421 422 424 423
f 423 424 426 425
f 425 426 428 427
f 427 428 430 429
f 429 430 432 431
f 431 432 434 433
f 433 434 436 435
f 435 436 438 437
f 437 438 440 439
f 439 440 442 441
f 441 442 444 443
f 443 444 446 445
f 445 446 448 447
f 447 448 386 385
f 449 451 452 450
f 451 453 454 452
f 453 455 456 454
f 455 457 458 456
f 457 459 460 458
f 459 461 462 460
f 461 463 464 462
f 463 465 466 464
f 465 467 468 466
f 467 469 470 468
f 469 471 472 470
f 471 473 474 472
f 473 475 476 474
f 475 477 478 476
f 477 479 480 478
f 479 481 482 480
f 481 483 484 482
f 483 485 486 484
f 485 487 488 486
f 487 489 490 488
f 489 491 492 490
f 491 493 494 492
f 493 495 496 494
f 495 497 498 496
f 497 499 500 498
f 499 501 502 500
f 501 503 504 502
f 503 505 506 504
f 505 507 508 506
f 507 509 510 508
f 509 511 512 510
f 511 449 450 512
f 397 461 459 395
f 420 484 486 422
f 430 494 496 432
f 407 471 469 405
f 440 504 506 442
f 417 481 479 415
f 427 491 489 425
f 386 450 452 388
f 437 501 499 435
f 447 511 509 445
f 396 460 462 398
f 406 470 472 408
f 393 457 455 391
f 416 480 482 418
f 403 467 465 401
f 426 490 492 428
f 413 477 475 411
f 436 500 502 438
f 446 510 512 448
f 423 487 485 421
f 433 497 495 431
f 443 507 505 441
f 392 456 458 394
f 402 466 468 404
f 412 476 478 414
f 389 453 451 387
f 399 463 461 397
f 422 486 488 424
f 409 473 471 407
f 432 496 498 434
f 442 506 508 444
f 419 483 481 417
f 429 493 491 427
f 439 503 501 437
f 388 452 454 390
f 385 449 511 447
f 398 462 464 400
f 408 472 474 410
f 395 459 457 393
f 418 482 484 420
f 405 469 467 403
f 428 492 494 430
f 438 502 504 440
f 415 479 477 413
f 448 512 450 386
f 425 489 487 423
f 435 499 497 433
f 445 509 507 443
f 394 458 460 396
f 404 468 470 406
f 391 455 453 389
f 414 478 480 416
f 401 465 463 399
f 424 488 490 426
f 387 451 449 385
f 411 475 473 409
f 434 498 500 436
f 444 508 510 446
f 421 485 483 419
f 431 495 493 429
f 441 505 503 439
f 390 454 456 392
f 400 464 466 402
f 410 474 476 412
